999
dxfrw 0.6.3
  0
SECTION
  2
HEADER
  9
$ACADVER
  1
AC1021
  9
$DWGCODEPAGE
  3
ANSI_1252
  9
$INSBASE
 10
0
 20
0
 30
0
  9
$EXTMIN
 10
0
 20
0
 30
0
  9
$EXTMAX
 10
297
 20
210
 30
0
  9
$LIMMIN
 10
0
 20
0
  9
$LIMMAX
 10
420
 20
297
  9
$ORTHOMODE
 70
    0
  9
$REGENMODE
 70
    1
  9
$FILLMODE
 70
    1
  9
$QTEXTMODE
 70
    0
  9
$MIRRTEXT
 70
    0
  9
$LTSCALE
 40
1
  9
$ATTMODE
 70
    0
  9
$TEXTSIZE
 40
2.5
  9
$TRACEWID
 40
15.68
  9
$TEXTSTYLE
  7
STANDARD
  9
$CLAYER
  8
Hilfslinie
  9
$CELTYPE
  6
BYLAYER
  9
$CECOLOR
 62
  256
  9
$CELTSCALE
 40
1
  9
$DISPSILH
 70
    0
  9
$DIMSCALE
 40
0.6
  9
$DIMASZ
 40
2.5
  9
$DIMEXO
 40
0.625
  9
$DIMDLI
 40
3.75
  9
$DIMRND
 40
0
  9
$DIMDLE
 40
0
  9
$DIMEXE
 40
1.25
  9
$DIMTP
 40
0
  9
$DIMTM
 40
0
  9
$DIMTXT
 40
2.7
  9
$DIMCEN
 40
2.5
  9
$DIMTSZ
 40
0
  9
$DIMTOL
 70
    0
  9
$DIMLIM
 70
    0
  9
$DIMTIH
 70
    0
  9
$DIMTOH
 70
    0
  9
$DIMSE1
 70
    0
  9
$DIMSE2
 70
    0
  9
$DIMTAD
 70
    1
  9
$DIMZIN
 70
    8
  9
$DIMBLK
  1

  9
$DIMASO
 70
    1
  9
$DIMSHO
 70
    1
  9
$DIMPOST
  1

  9
$DIMAPOST
  1

  9
$DIMALT
 70
    0
  9
$DIMALTD
 70
    3
  9
$DIMALTF
 40
0.03937
  9
$DIMLFAC
 40
1
  9
$DIMTOFL
 70
    1
  9
$DIMTVP
 40
0
  9
$DIMTIX
 70
    0
  9
$DIMSOXD
 70
    0
  9
$DIMSAH
 70
    0
  9
$DIMBLK1
  1

  9
$DIMBLK2
  1

  9
$DIMSTYLE
  2
STANDARD
  9
$DIMCLRD
 70
    0
  9
$DIMCLRE
 70
    0
  9
$DIMCLRT
 70
    0
  9
$DIMTFAC
 40
1
  9
$DIMGAP
 40
0.625
  9
$DIMJUST
 70
    0
  9
$DIMSD1
 70
    0
  9
$DIMSD2
 70
    0
  9
$DIMTOLJ
 70
    0
  9
$DIMTZIN
 70
    8
  9
$DIMALTZ
 70
    0
  9
$DIMALTTZ
 70
    0
  9
$DIMUPT
 70
    0
  9
$DIMDEC
 70
    2
  9
$DIMTDEC
 70
    2
  9
$DIMALTU
 70
    2
  9
$DIMALTTD
 70
    3
  9
$DIMTXSTY
  7
standard
  9
$DIMAUNIT
 70
    0
  9
$DIMADEC
 70
    3
  9
$DIMALTRND
 40
0
  9
$DIMAZIN
 70
    0
  9
$DIMDSEP
 70
   44
  9
$DIMATFIT
 70
    3
  9
$DIMFRAC
 70
    0
  9
$DIMLDRBLK
  1
STANDARD
  9
$DIMLUNIT
 70
    2
  9
$DIMLWD
 70
   -2
  9
$DIMLWE
 70
   -2
  9
$DIMTMOVE
 70
    0
  9
$DIMFXL
 40
1
  9
$DIMFXLON
 70
    0
  9
$DIMJOGANG
 40
0.7854
  9
$DIMTFILL
 70
    0
  9
$DIMTFILLCLR
 70
    0
  9
$DIMARCSYM
 70
    0
  9
$DIMLTYPE
  6

  9
$DIMLTEX1
  6

  9
$DIMLTEX2
  6

  9
$LUNITS
 70
    2
  9
$LUPREC
 70
    4
  9
$SKETCHINC
 40
1
  9
$FILLETRAD
 40
0
  9
$AUNITS
 70
    0
  9
$AUPREC
 70
    2
  9
$MENU
  1
.
  9
$ELEVATION
 40
0
  9
$PELEVATION
 40
0
  9
$THICKNESS
 40
0
  9
$LIMCHECK
 70
    0
  9
$CHAMFERA
 40
0
  9
$CHAMFERB
 40
0
  9
$CHAMFERC
 40
0
  9
$CHAMFERD
 40
0
  9
$SKPOLY
 70
    0
  9
$USRTIMER
 70
    1
  9
$ANGBASE
 50
0
  9
$ANGDIR
 70
    0
  9
$PDMODE
 70
   34
  9
$PDSIZE
 40
0
  9
$PLINEWID
 40
0
  9
$SPLFRAME
 70
    0
  9
$SPLINETYPE
 70
    2
  9
$SPLINESEGS
 70
    8
  9
$HANDSEED
  5
20000
  9
$SURFTAB1
 70
    6
  9
$SURFTAB2
 70
    6
  9
$SURFTYPE
 70
    6
  9
$SURFU
 70
    6
  9
$SURFV
 70
    6
  9
$UCSBASE
  2

  9
$UCSNAME
  2

  9
$UCSORG
 10
0
 20
0
 30
0
  9
$UCSXDIR
 10
1
 20
0
 30
0
  9
$UCSYDIR
 10
0
 20
1
 30
0
  9
$UCSORTHOREF
  2

  9
$UCSORTHOVIEW
 70
    0
  9
$UCSORGTOP
 10
0
 20
0
 30
0
  9
$UCSORGBOTTOM
 10
0
 20
0
 30
0
  9
$UCSORGLEFT
 10
0
 20
0
 30
0
  9
$UCSORGRIGHT
 10
0
 20
0
 30
0
  9
$UCSORGFRONT
 10
0
 20
0
 30
0
  9
$UCSORGBACK
 10
0
 20
0
 30
0
  9
$PUCSBASE
  2

  9
$PUCSNAME
  2

  9
$PUCSORG
 10
0
 20
0
 30
0
  9
$PUCSXDIR
 10
1
 20
0
 30
0
  9
$PUCSYDIR
 10
0
 20
1
 30
0
  9
$PUCSORTHOREF
  2

  9
$PUCSORTHOVIEW
 70
    0
  9
$PUCSORGTOP
 10
0
 20
0
 30
0
  9
$PUCSORGBOTTOM
 10
0
 20
0
 30
0
  9
$PUCSORGLEFT
 10
0
 20
0
 30
0
  9
$PUCSORGRIGHT
 10
0
 20
0
 30
0
  9
$PUCSORGFRONT
 10
0
 20
0
 30
0
  9
$PUCSORGBACK
 10
0
 20
0
 30
0
  9
$USERI1
 70
    0
  9
$USERI2
 70
    0
  9
$USERI3
 70
    0
  9
$USERI4
 70
    0
  9
$USERI5
 70
    0
  9
$USERR1
 40
0
  9
$USERR2
 40
0
  9
$USERR3
 40
0
  9
$USERR4
 40
0
  9
$USERR5
 40
0
  9
$WORLDVIEW
 70
    1
  9
$SHADEDGE
 70
    3
  9
$SHADEDIF
 70
   70
  9
$TILEMODE
 70
    1
  9
$MAXACTVP
 70
   64
  9
$PINSBASE
 10
0
 20
0
 30
0
  9
$PLIMCHECK
 70
    0
  9
$PEXTMIN
 10
0
 20
0
 30
0
  9
$PEXTMAX
 10
0
 20
0
 30
0
  9
$GRIDMODE
 70
    1
  9
$SNAPSTYLE
 70
    0
  9
$GRIDUNIT
 10
0
 20
0
  9
$PLIMMIN
 10
0
 20
0
  9
$PLIMMAX
 10
297
 20
210
  9
$UNITMODE
 70
    0
  9
$VISRETAIN
 70
    1
  9
$PLINEGEN
 70
    0
  9
$PSLTSCALE
 70
    1
  9
$TREEDEPTH
 70
 3020
  9
$CMLSTYLE
  2
Standard
  9
$CMLJUST
 70
    0
  9
$CMLSCALE
 40
20
  9
$PROXYGRAPHICS
 70
    1
  9
$MEASUREMENT
 70
    1
  9
$CELWEIGHT
370
   -1
  9
$ENDCAPS
280
    0
  9
$JOINSTYLE
280
    0
  9
$LWDISPLAY
290
    0
  9
$INSUNITS
 70
    4
  9
$HYPERLINKBASE
  1

  9
$STYLESHEET
  1

  9
$XEDIT
290
    1
  9
$CEPSNTYPE
380
    0
  9
$PSTYLEMODE
290
    1
  9
$EXTNAMES
290
    1
  9
$PSVPSCALE
 40
1
  9
$OLESTARTUP
290
    0
  9
$SORTENTS
280
  127
  9
$INDEXCTL
280
    0
  9
$HIDETEXT
280
    1
  9
$XCLIPFRAME
290
    0
  9
$HALOGAP
280
    0
  9
$OBSCOLOR
 70
  257
  9
$OBSLTYPE
280
    0
  9
$INTERSECTIONDISPLAY
280
    0
  9
$INTERSECTIONCOLOR
 70
  257
  9
$DIMASSOC
280
    1
  9
$PROJECTNAME
  1

  9
$CAMERADISPLAY
290
    0
  9
$LENSLENGTH
 40
50
  9
$CAMERAHEIGHT
 40
0
  9
$STEPSPERSEC
 40
2
  9
$STEPSIZE
 40
50
  9
$3DDWFPREC
 40
2
  9
$PSOLWIDTH
 40
5
  9
$PSOLHEIGHT
 40
80
  9
$LOFTANG1
 40
1.570796326794897
  9
$LOFTANG2
 40
1.570796326794897
  9
$LOFTMAG1
 40
0
  9
$LOFTMAG2
 40
0
  9
$LOFTPARAM
 70
    7
  9
$LOFTNORMALS
280
    1
  9
$LATITUDE
 40
1
  9
$LONGITUDE
 40
1
  9
$NORTHDIRECTION
 40
0
  9
$TIMEZONE
 70
-8000
  9
$LIGHTGLYPHDISPLAY
280
    1
  9
$TILEMODELIGHTSYNCH
280
    1
  9
$SOLIDHIST
280
    1
  9
$SHOWHIST
280
    1
  9
$DWFFRAME
280
    2
  9
$DGNFRAME
280
    0
  9
$REALWORLDSCALE
290
    1
  9
$INTERFERECOLOR
 62
    1
  9
$CSHADOW
280
    0
  9
$SHADOWPLANELOCATION
 40
0
  0
ENDSEC
  0
SECTION
  2
CLASSES
  0
ENDSEC
  0
SECTION
  2
TABLES
  0
TABLE
  2
VPORT
  5
8
330
0
100
AcDbSymbolTable
 70
    1
  0
VPORT
  5
31
330
2
100
AcDbSymbolTableRecord
100
AcDbViewportTableRecord
  2
*ACTIVE
 70
    0
 10
0
 20
0
 11
1
 21
1
 12
184.7959411764934
 22
119.3850000000148
 13
0
 23
0
 14
10
 24
10
 15
10
 25
10
 16
0
 26
0
 36
1
 17
0
 27
0
 37
0
 40
241.4452941176769
 41
1.87202216066482
 42
50
 43
0
 44
0
 50
0
 51
0
 71
    0
 72
  100
 73
    1
 74
    3
 75
    0
 76
    1
 77
    0
 78
    0
281
    0
 65
    1
110
0
120
0
130
0
111
1
121
0
131
0
112
0
122
1
132
0
 79
    0
146
0
348
10020
 60
    7
 61
    5
292
1
282
    1
141
0
142
0
 63
  250
421
3358443
  0
ENDTAB
  0
TABLE
  2
LTYPE
  5
5
330
0
100
AcDbSymbolTable
 70
    4
  0
LTYPE
  5
14
330
5
100
AcDbSymbolTableRecord
100
AcDbLinetypeTableRecord
  2
ByBlock
 70
    0
  3

 72
   65
 73
    0
 40
0
  0
LTYPE
  5
15
330
5
100
AcDbSymbolTableRecord
100
AcDbLinetypeTableRecord
  2
ByLayer
 70
    0
  3

 72
   65
 73
    0
 40
0
  0
LTYPE
  5
16
330
5
100
AcDbSymbolTableRecord
100
AcDbLinetypeTableRecord
  2
Continuous
 70
    0
  3
Solid line
 72
   65
 73
    0
 40
0
  0
LTYPE
  5
32
330
5
100
AcDbSymbolTableRecord
100
AcDbLinetypeTableRecord
  2
DOT
 70
    0
  3
Dot . . . . . . . . . . . . . . . . . . . . . .
 72
   65
 73
    2
 40
6.35
 49
0
 74
    0
 49
-6.35
 74
    0
  0
LTYPE
  5
33
330
5
100
AcDbSymbolTableRecord
100
AcDbLinetypeTableRecord
  2
DOTTINY
 70
    0
  3
Dot (.15x) .....................................
 72
   65
 73
    2
 40
0.9525
 49
0
 74
    0
 49
-0.9525
 74
    0
  0
LTYPE
  5
34
330
5
100
AcDbSymbolTableRecord
100
AcDbLinetypeTableRecord
  2
DOT2
 70
    0
  3
Dot (.5x) .....................................
 72
   65
 73
    2
 40
3.175
 49
0
 74
    0
 49
-3.175
 74
    0
  0
LTYPE
  5
35
330
5
100
AcDbSymbolTableRecord
100
AcDbLinetypeTableRecord
  2
DOTX2
 70
    0
  3
Dot (2x) .  .  .  .  .  .  .  .  .  .  .  .  .
 72
   65
 73
    2
 40
12.7
 49
0
 74
    0
 49
-12.7
 74
    0
  0
LTYPE
  5
36
330
5
100
AcDbSymbolTableRecord
100
AcDbLinetypeTableRecord
  2
DASHED
 70
    0
  3
Dashed _ _ _ _ _ _ _ _ _ _ _ _ _ _ _ _ _
 72
   65
 73
    2
 40
19.05
 49
12.7
 74
    0
 49
-6.35
 74
    0
  0
LTYPE
  5
37
330
5
100
AcDbSymbolTableRecord
100
AcDbLinetypeTableRecord
  2
DASHEDTINY
 70
    0
  3
Dashed (.15x) _ _ _ _ _ _ _ _ _ _ _ _ _ _ _ _ _
 72
   65
 73
    2
 40
2.8575
 49
1.905
 74
    0
 49
-0.9525
 74
    0
  0
LTYPE
  5
38
330
5
100
AcDbSymbolTableRecord
100
AcDbLinetypeTableRecord
  2
DASHED2
 70
    0
  3
Dashed (.5x) _ _ _ _ _ _ _ _ _ _ _ _ _ _ _ _ _
 72
   65
 73
    2
 40
9.524999999999999
 49
6.35
 74
    0
 49
-3.175
 74
    0
  0
LTYPE
  5
39
330
5
100
AcDbSymbolTableRecord
100
AcDbLinetypeTableRecord
  2
DASHEDX2
 70
    0
  3
Dashed (2x) ____  ____  ____  ____  ____  ___
 72
   65
 73
    2
 40
38.09999999999999
 49
25.4
 74
    0
 49
-12.7
 74
    0
  0
LTYPE
  5
3A
330
5
100
AcDbSymbolTableRecord
100
AcDbLinetypeTableRecord
  2
DASHDOT
 70
    0
  3
Dash dot __ . __ . __ . __ . __ . __ . __ . __
 72
   65
 73
    4
 40
25.4
 49
12.7
 74
    0
 49
-6.35
 74
    0
 49
0
 74
    0
 49
-6.35
 74
    0
  0
LTYPE
  5
3B
330
5
100
AcDbSymbolTableRecord
100
AcDbLinetypeTableRecord
  2
DASHDOTTINY
 70
    0
  3
Dash dot (.15x) _._._._._._._._._._._._._._._.
 72
   65
 73
    4
 40
3.81
 49
1.905
 74
    0
 49
-0.9525
 74
    0
 49
0
 74
    0
 49
-0.9525
 74
    0
  0
LTYPE
  5
3C
330
5
100
AcDbSymbolTableRecord
100
AcDbLinetypeTableRecord
  2
DASHDOT2
 70
    0
  3
Dash dot (.5x) _._._._._._._._._._._._._._._.
 72
   65
 73
    4
 40
12.7
 49
6.35
 74
    0
 49
-3.175
 74
    0
 49
0
 74
    0
 49
-3.175
 74
    0
  0
LTYPE
  5
3D
330
5
100
AcDbSymbolTableRecord
100
AcDbLinetypeTableRecord
  2
DASHDOTX2
 70
    0
  3
Dash dot (2x) ____  .  ____  .  ____  .  ___
 72
   65
 73
    4
 40
50.8
 49
25.4
 74
    0
 49
-12.7
 74
    0
 49
0
 74
    0
 49
-12.7
 74
    0
  0
LTYPE
  5
3E
330
5
100
AcDbSymbolTableRecord
100
AcDbLinetypeTableRecord
  2
DIVIDE
 70
    0
  3
Divide ____ . . ____ . . ____ . . ____ . . ____
 72
   65
 73
    6
 40
31.75
 49
12.7
 74
    0
 49
-6.35
 74
    0
 49
0
 74
    0
 49
-6.35
 74
    0
 49
0
 74
    0
 49
-6.35
 74
    0
  0
LTYPE
  5
3F
330
5
100
AcDbSymbolTableRecord
100
AcDbLinetypeTableRecord
  2
DIVIDETINY
 70
    0
  3
Divide (.15x) __..__..__..__..__..__..__..__.._
 72
   65
 73
    6
 40
4.7625
 49
1.905
 74
    0
 49
-0.9525
 74
    0
 49
0
 74
    0
 49
-0.9525
 74
    0
 49
0
 74
    0
 49
-0.9525
 74
    0
  0
LTYPE
  5
40
330
5
100
AcDbSymbolTableRecord
100
AcDbLinetypeTableRecord
  2
DIVIDE2
 70
    0
  3
Divide (.5x) __..__..__..__..__..__..__..__.._
 72
   65
 73
    6
 40
15.875
 49
6.35
 74
    0
 49
-3.175
 74
    0
 49
0
 74
    0
 49
-3.175
 74
    0
 49
0
 74
    0
 49
-3.175
 74
    0
  0
LTYPE
  5
41
330
5
100
AcDbSymbolTableRecord
100
AcDbLinetypeTableRecord
  2
DIVIDEX2
 70
    0
  3
Divide (2x) ________  .  .  ________  .  .  _
 72
   65
 73
    6
 40
63.5
 49
25.4
 74
    0
 49
-12.7
 74
    0
 49
0
 74
    0
 49
-12.7
 74
    0
 49
0
 74
    0
 49
-12.7
 74
    0
  0
LTYPE
  5
42
330
5
100
AcDbSymbolTableRecord
100
AcDbLinetypeTableRecord
  2
BORDER
 70
    0
  3
Border __ __ . __ __ . __ __ . __ __ . __ __ .
 72
   65
 73
    6
 40
44.45
 49
12.7
 74
    0
 49
-6.35
 74
    0
 49
12.7
 74
    0
 49
-6.35
 74
    0
 49
0
 74
    0
 49
-6.35
 74
    0
  0
LTYPE
  5
43
330
5
100
AcDbSymbolTableRecord
100
AcDbLinetypeTableRecord
  2
BORDERTINY
 70
    0
  3
Border (.15x) __.__.__.__.__.__.__.__.__.__.__.
 72
   65
 73
    6
 40
6.6675
 49
1.905
 74
    0
 49
-0.9525
 74
    0
 49
1.905
 74
    0
 49
-0.9525
 74
    0
 49
0
 74
    0
 49
-0.9525
 74
    0
  0
LTYPE
  5
44
330
5
100
AcDbSymbolTableRecord
100
AcDbLinetypeTableRecord
  2
BORDER2
 70
    0
  3
Border (.5x) __.__.__.__.__.__.__.__.__.__.__.
 72
   65
 73
    6
 40
22.225
 49
6.35
 74
    0
 49
-3.175
 74
    0
 49
6.35
 74
    0
 49
-3.175
 74
    0
 49
0
 74
    0
 49
-3.175
 74
    0
  0
LTYPE
  5
45
330
5
100
AcDbSymbolTableRecord
100
AcDbLinetypeTableRecord
  2
BORDERX2
 70
    0
  3
Border (2x) ____  ____  .  ____  ____  .  ___
 72
   65
 73
    6
 40
88.89999999999999
 49
25.4
 74
    0
 49
-12.7
 74
    0
 49
25.4
 74
    0
 49
-12.7
 74
    0
 49
0
 74
    0
 49
-12.7
 74
    0
  0
LTYPE
  5
46
330
5
100
AcDbSymbolTableRecord
100
AcDbLinetypeTableRecord
  2
CENTER
 70
    0
  3
Center ____ _ ____ _ ____ _ ____ _ ____ _ ____
 72
   65
 73
    4
 40
50.8
 49
31.75
 74
    0
 49
-6.35
 74
    0
 49
6.35
 74
    0
 49
-6.35
 74
    0
  0
LTYPE
  5
47
330
5
100
AcDbSymbolTableRecord
100
AcDbLinetypeTableRecord
  2
CENTERTINY
 70
    0
  3
Center (.15x) ___ _ ___ _ ___ _ ___ _ ___ _ ___
 72
   65
 73
    4
 40
7.62
 49
4.7625
 74
    0
 49
-0.9525
 74
    0
 49
0.9525
 74
    0
 49
-0.9525
 74
    0
  0
LTYPE
  5
48
330
5
100
AcDbSymbolTableRecord
100
AcDbLinetypeTableRecord
  2
CENTER2
 70
    0
  3
Center (.5x) ___ _ ___ _ ___ _ ___ _ ___ _ ___
 72
   65
 73
    4
 40
28.575
 49
19.05
 74
    0
 49
-3.175
 74
    0
 49
3.175
 74
    0
 49
-3.175
 74
    0
  0
LTYPE
  5
49
330
5
100
AcDbSymbolTableRecord
100
AcDbLinetypeTableRecord
  2
CENTERX2
 70
    0
  3
Center (2x) ________  __  ________  __  _____
 72
   65
 73
    4
 40
101.6
 49
63.5
 74
    0
 49
-12.7
 74
    0
 49
12.7
 74
    0
 49
-12.7
 74
    0
  0
ENDTAB
  0
TABLE
  2
LAYER
  5
2
330
0
100
AcDbSymbolTable
 70
    1
  0
LAYER
  5
10
330
2
100
AcDbSymbolTableRecord
100
AcDbLayerTableRecord
  2
0
 70
    0
 62
    7
  6
CONTINUOUS
370
    0
390
F
  0
LAYER
  5
4A
330
2
100
AcDbSymbolTableRecord
100
AcDbLayerTableRecord
  2
Achsen
 70
    0
 62
    7
  6
CENTER2
370
   25
390
F
  0
LAYER
  5
4B
330
2
100
AcDbSymbolTableRecord
100
AcDbLayerTableRecord
  2
Bemaßung
 70
    0
 62
    7
  6
CONTINUOUS
370
   25
390
F
  0
LAYER
  5
4C
330
2
100
AcDbSymbolTableRecord
100
AcDbLayerTableRecord
  2
Gewinde
 70
    0
 62
    7
  6
DASHED
370
   13
390
F
  0
LAYER
  5
4D
330
2
100
AcDbSymbolTableRecord
100
AcDbLayerTableRecord
  2
Grundkörper
 70
    0
 62
    7
  6
CONTINUOUS
370
   18
390
F
  0
LAYER
  5
4E
330
2
100
AcDbSymbolTableRecord
100
AcDbLayerTableRecord
  2
Hilfslinie
 70
    0
 62
    6
  6
CONTINUOUS
370
    0
390
F
  0
LAYER
  5
4F
330
2
100
AcDbSymbolTableRecord
100
AcDbLayerTableRecord
  2
Maße
 70
    0
 62
  176
420
  128
  6
CONTINUOUS
370
    9
390
F
  0
LAYER
  5
50
330
2
100
AcDbSymbolTableRecord
100
AcDbLayerTableRecord
  2
O-Ringe
 70
    0
 62
   96
420
32768
  6
CONTINUOUS
370
   13
390
F
  0
LAYER
  5
51
330
2
100
AcDbSymbolTableRecord
100
AcDbLayerTableRecord
  2
Rahmen
 70
    4
 62
    7
  6
CONTINUOUS
370
   35
390
F
  0
LAYER
  5
52
330
2
100
AcDbSymbolTableRecord
100
AcDbLayerTableRecord
  2
Schraffur
 70
    0
 62
    7
  6
CONTINUOUS
370
   25
390
F
  0
LAYER
  5
53
330
2
100
AcDbSymbolTableRecord
100
AcDbLayerTableRecord
  2
Schriftfeld-Label
 70
    4
 62
    7
  6
CONTINUOUS
370
   25
390
F
  0
LAYER
  5
54
330
2
100
AcDbSymbolTableRecord
100
AcDbLayerTableRecord
  2
Schriftfeld-Rahmen
 70
    4
 62
    7
  6
CONTINUOUS
370
   35
390
F
  0
LAYER
  5
55
330
2
100
AcDbSymbolTableRecord
100
AcDbLayerTableRecord
  2
Schriftfeld-Text
 70
    0
 62
    7
  6
CONTINUOUS
370
   35
390
F
  0
ENDTAB
  0
TABLE
  2
STYLE
  5
3
330
0
100
AcDbSymbolTable
 70
    3
  0
STYLE
  5
56
330
2
100
AcDbSymbolTableRecord
100
AcDbTextStyleTableRecord
  2
unicode
 70
    0
 40
0
 41
1
 50
0
 71
    0
 42
1
  3
unicode
  4

  0
STYLE
  5
57
330
2
100
AcDbSymbolTableRecord
100
AcDbTextStyleTableRecord
  2
standard
 70
    0
 40
0
 41
1
 50
0
 71
    0
 42
1
  3
standard
  4

  0
ENDTAB
  0
TABLE
  2
VIEW
  5
6
330
0
100
AcDbSymbolTable
 70
    0
  0
ENDTAB
  0
TABLE
  2
UCS
  5
7
330
0
100
AcDbSymbolTable
 70
    0
  0
ENDTAB
  0
TABLE
  2
APPID
  5
9
330
0
100
AcDbSymbolTable
 70
    1
  0
APPID
  5
12
330
9
100
AcDbSymbolTableRecord
100
AcDbRegAppTableRecord
  2
ACAD
 70
    0
  0
APPID
  5
58
330
9
100
AcDbSymbolTableRecord
100
AcDbRegAppTableRecord
  2
LibreCad
 70
    0
  0
ENDTAB
  0
TABLE
  2
DIMSTYLE
  5
A
330
0
100
AcDbSymbolTable
 70
    1
100
AcDbDimStyleTable
 71
    1
  0
DIMSTYLE
105
59
330
A
100
AcDbSymbolTableRecord
100
AcDbDimStyleTableRecord
  2
Standard
 70
    0
 40
0.6
 41
2.5
 42
0.625
 43
0.38
 44
1.25
 45
0
 46
0
 47
0
 48
0
 49
1
140
2.7
141
0.09
142
0
143
25.4
144
1
145
0
146
1
147
0.625
148
0
 71
    0
 72
    0
 73
    0
 74
    1
 75
    0
 76
    0
 77
    0
 78
    8
 79
    0
170
    0
171
    2
172
    0
173
    0
174
    0
175
    0
176
    0
177
    0
178
    0
179
    3
271
    2
272
    4
273
    2
274
    2
275
    0
276
    0
277
    2
278
   44
279
    0
280
    0
281
    0
282
    0
283
    1
284
    0
285
    0
286
    0
288
    0
289
    3
340
standard
341

371
   -2
372
   -2
  0
ENDTAB
  0
TABLE
  2
BLOCK_RECORD
  5
1
330
0
100
AcDbSymbolTable
 70
    2
  0
BLOCK_RECORD
  5
1F
330
1
100
AcDbSymbolTableRecord
100
AcDbBlockTableRecord
  2
*Model_Space
 70
    0
280
    1
281
    0
  0
BLOCK_RECORD
  5
1E
330
1
100
AcDbSymbolTableRecord
100
AcDbBlockTableRecord
  2
*Paper_Space
 70
    0
280
    1
281
    0
  0
BLOCK_RECORD
  5
5A
330
1
100
AcDbSymbolTableRecord
100
AcDbBlockTableRecord
  2
*D8
 70
    0
280
    1
281
    0
  0
BLOCK_RECORD
  5
5D
330
1
100
AcDbSymbolTableRecord
100
AcDbBlockTableRecord
  2
*D17
 70
    0
280
    1
281
    0
  0
BLOCK_RECORD
  5
60
330
1
100
AcDbSymbolTableRecord
100
AcDbBlockTableRecord
  2
*D13
 70
    0
280
    1
281
    0
  0
BLOCK_RECORD
  5
63
330
1
100
AcDbSymbolTableRecord
100
AcDbBlockTableRecord
  2
*D1
 70
    0
280
    1
281
    0
  0
BLOCK_RECORD
  5
66
330
1
100
AcDbSymbolTableRecord
100
AcDbBlockTableRecord
  2
*D2
 70
    0
280
    1
281
    0
  0
BLOCK_RECORD
  5
69
330
1
100
AcDbSymbolTableRecord
100
AcDbBlockTableRecord
  2
*D4
 70
    0
280
    1
281
    0
  0
BLOCK_RECORD
  5
6C
330
1
100
AcDbSymbolTableRecord
100
AcDbBlockTableRecord
  2
*D10
 70
    0
280
    1
281
    0
  0
BLOCK_RECORD
  5
6F
330
1
100
AcDbSymbolTableRecord
100
AcDbBlockTableRecord
  2
*D5
 70
    0
280
    1
281
    0
  0
BLOCK_RECORD
  5
72
330
1
100
AcDbSymbolTableRecord
100
AcDbBlockTableRecord
  2
*D6
 70
    0
280
    1
281
    0
  0
BLOCK_RECORD
  5
75
330
1
100
AcDbSymbolTableRecord
100
AcDbBlockTableRecord
  2
*D3
 70
    0
280
    1
281
    0
  0
BLOCK_RECORD
  5
78
330
1
100
AcDbSymbolTableRecord
100
AcDbBlockTableRecord
  2
*D16
 70
    0
280
    1
281
    0
  0
BLOCK_RECORD
  5
7B
330
1
100
AcDbSymbolTableRecord
100
AcDbBlockTableRecord
  2
*D11
 70
    0
280
    1
281
    0
  0
BLOCK_RECORD
  5
7E
330
1
100
AcDbSymbolTableRecord
100
AcDbBlockTableRecord
  2
*D9
 70
    0
280
    1
281
    0
  0
BLOCK_RECORD
  5
81
330
1
100
AcDbSymbolTableRecord
100
AcDbBlockTableRecord
  2
*D7
 70
    0
280
    1
281
    0
  0
BLOCK_RECORD
  5
84
330
1
100
AcDbSymbolTableRecord
100
AcDbBlockTableRecord
  2
*D12
 70
    0
280
    1
281
    0
  0
BLOCK_RECORD
  5
87
330
1
100
AcDbSymbolTableRecord
100
AcDbBlockTableRecord
  2
*D14
 70
    0
280
    1
281
    0
  0
BLOCK_RECORD
  5
8A
330
1
100
AcDbSymbolTableRecord
100
AcDbBlockTableRecord
  2
*D15
 70
    0
280
    1
281
    0
  0
ENDTAB
  0
ENDSEC
  0
SECTION
  2
BLOCKS
  0
BLOCK
  5
20
330
1F
100
AcDbEntity
  8
0
100
AcDbBlockBegin
  2
*Model_Space
 70
    0
 10
0
 20
0
 30
0
  3
*Model_Space
  1

  0
ENDBLK
  5
21
330
1F
100
AcDbEntity
  8
0
100
AcDbBlockEnd
  0
BLOCK
  5
1C
330
1B
100
AcDbEntity
  8
0
100
AcDbBlockBegin
  2
*Paper_Space
 70
    0
 10
0
 20
0
 30
0
  3
*Paper_Space
  1

  0
ENDBLK
  5
1D
330
1F
100
AcDbEntity
  8
0
100
AcDbBlockEnd
  0
BLOCK
  5
5B
330
5A
100
AcDbEntity
  8
0
100
AcDbBlockBegin
  2
*D8
 70
    1
 10
0
 20
0
  3
*D8
  1

  0
LINE
  5
8D
100
AcDbEntity
  8
Maße
  6
ByBlock
 62
    0
370
   -2
100
AcDbLine
 10
156
 20
148
 11
197.8
 21
148
  0
MTEXT
  5
8E
100
AcDbEntity
  8
Maße
  6
CONTINUOUS
 62
    0
370
   -2
100
AcDbMText
 10
176.9
 20
149.185
 30
0
 40
1.62
 41
3.69
 71
    5
 72
    1
  1
41,8
  7
standard
210
0
220
0
230
1
 50
0
 73
    2
 44
1
  0
SOLID
  5
8F
100
AcDbEntity
  8
Maße
  6
ByBlock
 62
    0
370
   -2
100
AcDbTrace
 10
156
 20
148
 30
0
 11
157.5
 21
148.2497707946637
 31
0
 12
157.5
 22
147.7502292053363
 32
0
 13
157.5
 23
147.7502292053363
 33
0
  0
SOLID
  5
90
100
AcDbEntity
  8
Maße
  6
ByBlock
 62
    0
370
   -2
100
AcDbTrace
 10
197.8
 20
148
 30
0
 11
196.3
 21
147.7502292053363
 31
0
 12
196.3
 22
148.2497707946637
 32
0
 13
196.3
 23
148.2497707946637
 33
0
  0
LINE
  5
91
100
AcDbEntity
  8
Maße
  6
ByBlock
 62
    0
370
   -2
100
AcDbLine
 10
156
 20
145.375
 11
156
 21
148.75
  0
LINE
  5
92
100
AcDbEntity
  8
Maße
  6
ByBlock
 62
    0
370
   -2
100
AcDbLine
 10
197.8
 20
145.375
 11
197.8
 21
148.75
  0
ENDBLK
  5
5C
330
5A
100
AcDbEntity
  8
0
100
AcDbBlockEnd
  0
BLOCK
  5
5E
330
5D
100
AcDbEntity
  8
0
100
AcDbBlockBegin
  2
*D17
 70
    1
 10
0
 20
0
  3
*D17
  1

  0
LINE
  5
93
100
AcDbEntity
  8
Maße
  6
ByBlock
 62
    0
370
   -2
100
AcDbLine
 10
90
 20
114
 11
90
 21
127.9
  0
MTEXT
  5
94
100
AcDbEntity
  8
Maße
  6
CONTINUOUS
 62
    0
370
   -2
100
AcDbMText
 10
88.815
 20
120.95
 30
0
 40
1.62
 41
3.510000000000101
 71
    5
 72
    1
  1
13,9
  7
standard
210
0
220
0
230
1
 50
90
 73
    2
 44
1
  0
SOLID
  5
95
100
AcDbEntity
  8
Maße
  6
ByBlock
 62
    0
370
   -2
100
AcDbTrace
 10
90
 20
114
 30
0
 11
89.7502292053363
 21
115.5
 31
0
 12
90.2497707946637
 22
115.5
 32
0
 13
90.2497707946637
 23
115.5
 33
0
  0
SOLID
  5
96
100
AcDbEntity
  8
Maße
  6
ByBlock
 62
    0
370
   -2
100
AcDbTrace
 10
90
 20
127.9
 30
0
 11
90.2497707946637
 21
126.4
 31
0
 12
89.7502292053363
 22
126.4
 32
0
 13
89.7502292053363
 23
126.4
 33
0
  0
LINE
  5
97
100
AcDbEntity
  8
Maße
  6
ByBlock
 62
    0
370
   -2
100
AcDbLine
 10
89.625
 20
114
 11
89.25
 21
114
  0
LINE
  5
98
100
AcDbEntity
  8
Maße
  6
ByBlock
 62
    0
370
   -2
100
AcDbLine
 10
89.64545633643561
 20
127.9
 11
89.25
 21
127.9
  0
ENDBLK
  5
5F
330
5D
100
AcDbEntity
  8
0
100
AcDbBlockEnd
  0
BLOCK
  5
61
330
60
100
AcDbEntity
  8
0
100
AcDbBlockBegin
  2
*D13
 70
    1
 10
0
 20
0
  3
*D13
  1

  0
LINE
  5
99
100
AcDbEntity
  8
Maße
  6
ByBlock
 62
    0
370
   -2
100
AcDbLine
 10
69.09999999999999
 20
157.9
 11
110.9
 21
157.9
  0
MTEXT
  5
9A
100
AcDbEntity
  8
Maße
  6
CONTINUOUS
 62
    0
370
   -2
100
AcDbMText
 10
90
 20
159.085
 30
0
 40
1.62
 41
3.69
 71
    5
 72
    1
  1
41,8
  7
standard
210
0
220
0
230
1
 50
0
 73
    2
 44
1
  0
SOLID
  5
9B
100
AcDbEntity
  8
Maße
  6
ByBlock
 62
    0
370
   -2
100
AcDbTrace
 10
69.09999999999999
 20
157.9
 30
0
 11
70.59999999999999
 21
158.1497707946637
 31
0
 12
70.59999999999999
 22
157.6502292053363
 32
0
 13
70.59999999999999
 23
157.6502292053363
 33
0
  0
SOLID
  5
9C
100
AcDbEntity
  8
Maße
  6
ByBlock
 62
    0
370
   -2
100
AcDbTrace
 10
110.9
 20
157.9
 30
0
 11
109.4
 21
157.6502292053363
 31
0
 12
109.4
 22
158.1497707946637
 32
0
 13
109.4
 23
158.1497707946637
 33
0
  0
LINE
  5
9D
100
AcDbEntity
  8
Maße
  6
ByBlock
 62
    0
370
   -2
100
AcDbLine
 10
69.09999999999999
 20
131.275
 11
69.09999999999999
 21
158.65
  0
LINE
  5
9E
100
AcDbEntity
  8
Maße
  6
ByBlock
 62
    0
370
   -2
100
AcDbLine
 10
110.9
 20
131.275
 11
110.9
 21
158.65
  0
ENDBLK
  5
62
330
60
100
AcDbEntity
  8
0
100
AcDbBlockEnd
  0
BLOCK
  5
64
330
63
100
AcDbEntity
  8
0
100
AcDbBlockBegin
  2
*D1
 70
    1
 10
0
 20
0
  3
*D1
  1

  0
LINE
  5
9F
100
AcDbEntity
  8
Maße
  6
ByBlock
 62
    0
370
   -2
100
AcDbLine
 10
160
 20
107
 11
193.8
 21
107
  0
MTEXT
  5
A0
100
AcDbEntity
  8
Maße
  6
CONTINUOUS
 62
    0
370
   -2
100
AcDbMText
 10
176.9
 20
108.185
 30
0
 40
1.62
 41
3.870000000000201
 71
    5
 72
    1
  1
33,8
  7
standard
210
0
220
0
230
1
 50
0
 73
    2
 44
1
  0
SOLID
  5
A1
100
AcDbEntity
  8
Maße
  6
ByBlock
 62
    0
370
   -2
100
AcDbTrace
 10
160
 20
107
 30
0
 11
161.5
 21
107.2497707946637
 31
0
 12
161.5
 22
106.7502292053363
 32
0
 13
161.5
 23
106.7502292053363
 33
0
  0
SOLID
  5
A2
100
AcDbEntity
  8
Maße
  6
ByBlock
 62
    0
370
   -2
100
AcDbTrace
 10
193.8
 20
107
 30
0
 11
192.3
 21
106.7502292053363
 31
0
 12
192.3
 22
107.2497707946637
 32
0
 13
192.3
 23
107.2497707946637
 33
0
  0
LINE
  5
A3
100
AcDbEntity
  8
Maße
  6
ByBlock
 62
    0
370
   -2
100
AcDbLine
 10
160
 20
109.625
 11
160
 21
106.25
  0
LINE
  5
A4
100
AcDbEntity
  8
Maße
  6
ByBlock
 62
    0
370
   -2
100
AcDbLine
 10
193.8
 20
109.625
 11
193.8
 21
106.25
  0
ENDBLK
  5
65
330
63
100
AcDbEntity
  8
0
100
AcDbBlockEnd
  0
BLOCK
  5
67
330
66
100
AcDbEntity
  8
0
100
AcDbBlockBegin
  2
*D2
 70
    1
 10
0
 20
0
  3
*D2
  1

  0
LINE
  5
A5
100
AcDbEntity
  8
Maße
  6
ByBlock
 62
    0
370
   -2
100
AcDbLine
 10
158
 20
110
 11
158
 21
115
  0
MTEXT
  5
A6
100
AcDbEntity
  8
Maße
  6
CONTINUOUS
 62
    0
370
   -2
100
AcDbMText
 10
156.815
 20
112.5
 30
0
 40
1.62
 41
0.7200000000001006
 71
    5
 72
    1
  1
5
  7
standard
210
0
220
0
230
1
 50
90
 73
    2
 44
1
  0
SOLID
  5
A7
100
AcDbEntity
  8
Maße
  6
ByBlock
 62
    0
370
   -2
100
AcDbTrace
 10
158
 20
110
 30
0
 11
157.7502292053363
 21
111.5
 31
0
 12
158.2497707946637
 22
111.5
 32
0
 13
158.2497707946637
 23
111.5
 33
0
  0
SOLID
  5
A8
100
AcDbEntity
  8
Maße
  6
ByBlock
 62
    0
370
   -2
100
AcDbTrace
 10
158
 20
115
 30
0
 11
158.2497707946637
 21
113.5
 31
0
 12
157.7502292053363
 22
113.5
 32
0
 13
157.7502292053363
 23
113.5
 33
0
  0
LINE
  5
A9
100
AcDbEntity
  8
Maße
  6
ByBlock
 62
    0
370
   -2
100
AcDbLine
 10
159.625
 20
110
 11
157.25
 21
110
  0
LINE
  5
AA
100
AcDbEntity
  8
Maße
  6
ByBlock
 62
    0
370
   -2
100
AcDbLine
 10
159.625
 20
115
 11
157.25
 21
115
  0
ENDBLK
  5
68
330
66
100
AcDbEntity
  8
0
100
AcDbBlockEnd
  0
BLOCK
  5
6A
330
69
100
AcDbEntity
  8
0
100
AcDbBlockBegin
  2
*D4
 70
    1
 10
0
 20
0
  3
*D4
  1

  0
LINE
  5
AB
100
AcDbEntity
  8
Maße
  6
ByBlock
 62
    0
370
   -2
100
AcDbLine
 10
158
 20
119
 11
158
 21
123
  0
MTEXT
  5
AC
100
AcDbEntity
  8
Maße
  6
CONTINUOUS
 62
    0
370
   -2
100
AcDbMText
 10
156.815
 20
121
 30
0
 40
1.62
 41
0.9000000000000001
 71
    5
 72
    1
  1
4
  7
standard
210
0
220
0
230
1
 50
90
 73
    2
 44
1
  0
SOLID
  5
AD
100
AcDbEntity
  8
Maße
  6
ByBlock
 62
    0
370
   -2
100
AcDbTrace
 10
158
 20
119
 30
0
 11
157.7502292053363
 21
120.5
 31
0
 12
158.2497707946637
 22
120.5
 32
0
 13
158.2497707946637
 23
120.5
 33
0
  0
SOLID
  5
AE
100
AcDbEntity
  8
Maße
  6
ByBlock
 62
    0
370
   -2
100
AcDbTrace
 10
158
 20
123
 30
0
 11
158.2497707946637
 21
121.5
 31
0
 12
157.7502292053363
 22
121.5
 32
0
 13
157.7502292053363
 23
121.5
 33
0
  0
LINE
  5
AF
100
AcDbEntity
  8
Maße
  6
ByBlock
 62
    0
370
   -2
100
AcDbLine
 10
159.625
 20
119
 11
157.25
 21
119
  0
LINE
  5
B0
100
AcDbEntity
  8
Maße
  6
ByBlock
 62
    0
370
   -2
100
AcDbLine
 10
159.625
 20
123
 11
157.25
 21
123
  0
ENDBLK
  5
6B
330
69
100
AcDbEntity
  8
0
100
AcDbBlockEnd
  0
BLOCK
  5
6D
330
6C
100
AcDbEntity
  8
0
100
AcDbBlockBegin
  2
*D10
 70
    1
 10
0
 20
0
  3
*D10
  1

  0
LINE
  5
B1
100
AcDbEntity
  8
Maße
  6
ByBlock
 62
    0
370
   -2
100
AcDbLine
 10
172
 20
135
 11
172
 21
145
  0
MTEXT
  5
B2
100
AcDbEntity
  8
Maße
  6
CONTINUOUS
 62
    0
370
   -2
100
AcDbMText
 10
170.815
 20
140
 30
0
 40
1.62
 41
1.62
 71
    5
 72
    1
  1
10
  7
standard
210
0
220
0
230
1
 50
90
 73
    2
 44
1
  0
SOLID
  5
B3
100
AcDbEntity
  8
Maße
  6
ByBlock
 62
    0
370
   -2
100
AcDbTrace
 10
172
 20
135
 30
0
 11
171.7502292053363
 21
136.5
 31
0
 12
172.2497707946637
 22
136.5
 32
0
 13
172.2497707946637
 23
136.5
 33
0
  0
SOLID
  5
B4
100
AcDbEntity
  8
Maße
  6
ByBlock
 62
    0
370
   -2
100
AcDbTrace
 10
172
 20
145
 30
0
 11
172.2497707946637
 21
143.5
 31
0
 12
171.7502292053363
 22
143.5
 32
0
 13
171.7502292053363
 23
143.5
 33
0
  0
LINE
  5
B5
100
AcDbEntity
  8
Maße
  6
ByBlock
 62
    0
370
   -2
100
AcDbLine
 10
173.525
 20
135
 11
171.25
 21
135
  0
LINE
  5
B6
100
AcDbEntity
  8
Maße
  6
ByBlock
 62
    0
370
   -2
100
AcDbLine
 10
173.525
 20
145
 11
171.25
 21
145
  0
ENDBLK
  5
6E
330
6C
100
AcDbEntity
  8
0
100
AcDbBlockEnd
  0
BLOCK
  5
70
330
6F
100
AcDbEntity
  8
0
100
AcDbBlockBegin
  2
*D5
 70
    1
 10
0
 20
0
  3
*D5
  1

  0
LINE
  5
B7
100
AcDbEntity
  8
Maße
  6
ByBlock
 62
    0
370
   -2
100
AcDbLine
 10
158
 20
123
 11
158
 21
127
  0
MTEXT
  5
B8
100
AcDbEntity
  8
Maße
  6
CONTINUOUS
 62
    0
370
   -2
100
AcDbMText
 10
156.815
 20
125
 30
0
 40
1.62
 41
0.9000000000000001
 71
    5
 72
    1
  1
4
  7
standard
210
0
220
0
230
1
 50
90
 73
    2
 44
1
  0
SOLID
  5
B9
100
AcDbEntity
  8
Maße
  6
ByBlock
 62
    0
370
   -2
100
AcDbTrace
 10
158
 20
123
 30
0
 11
157.7502292053363
 21
124.5
 31
0
 12
158.2497707946637
 22
124.5
 32
0
 13
158.2497707946637
 23
124.5
 33
0
  0
SOLID
  5
BA
100
AcDbEntity
  8
Maße
  6
ByBlock
 62
    0
370
   -2
100
AcDbTrace
 10
158
 20
127
 30
0
 11
158.2497707946637
 21
125.5
 31
0
 12
157.7502292053363
 22
125.5
 32
0
 13
157.7502292053363
 23
125.5
 33
0
  0
LINE
  5
BB
100
AcDbEntity
  8
Maße
  6
ByBlock
 62
    0
370
   -2
100
AcDbLine
 10
159.625
 20
123
 11
157.25
 21
123
  0
LINE
  5
BC
100
AcDbEntity
  8
Maße
  6
ByBlock
 62
    0
370
   -2
100
AcDbLine
 10
159.625
 20
127
 11
157.25
 21
127
  0
ENDBLK
  5
71
330
6F
100
AcDbEntity
  8
0
100
AcDbBlockEnd
  0
BLOCK
  5
73
330
72
100
AcDbEntity
  8
0
100
AcDbBlockBegin
  2
*D6
 70
    1
 10
0
 20
0
  3
*D6
  1

  0
LINE
  5
BD
100
AcDbEntity
  8
Maße
  6
ByBlock
 62
    0
370
   -2
100
AcDbLine
 10
154
 20
127
 11
154
 21
135
  0
MTEXT
  5
BE
100
AcDbEntity
  8
Maße
  6
CONTINUOUS
 62
    0
370
   -2
100
AcDbMText
 10
152.815
 20
131
 30
0
 40
1.62
 41
0.7200000000000001
 71
    5
 72
    1
  1
8
  7
standard
210
0
220
0
230
1
 50
90
 73
    2
 44
1
  0
SOLID
  5
BF
100
AcDbEntity
  8
Maße
  6
ByBlock
 62
    0
370
   -2
100
AcDbTrace
 10
154
 20
127
 30
0
 11
153.7502292053363
 21
128.5
 31
0
 12
154.2497707946637
 22
128.5
 32
0
 13
154.2497707946637
 23
128.5
 33
0
  0
SOLID
  5
C0
100
AcDbEntity
  8
Maße
  6
ByBlock
 62
    0
370
   -2
100
AcDbTrace
 10
154
 20
135
 30
0
 11
154.2497707946637
 21
133.5
 31
0
 12
153.7502292053363
 22
133.5
 32
0
 13
153.7502292053363
 23
133.5
 33
0
  0
LINE
  5
C1
100
AcDbEntity
  8
Maße
  6
ByBlock
 62
    0
370
   -2
100
AcDbLine
 10
159.625
 20
127
 11
153.25
 21
127
  0
LINE
  5
C2
100
AcDbEntity
  8
Maße
  6
ByBlock
 62
    0
370
   -2
100
AcDbLine
 10
159.625
 20
135
 11
153.25
 21
135
  0
ENDBLK
  5
74
330
72
100
AcDbEntity
  8
0
100
AcDbBlockEnd
  0
BLOCK
  5
76
330
75
100
AcDbEntity
  8
0
100
AcDbBlockBegin
  2
*D3
 70
    1
 10
0
 20
0
  3
*D3
  1

  0
LINE
  5
C3
100
AcDbEntity
  8
Maße
  6
ByBlock
 62
    0
370
   -2
100
AcDbLine
 10
158
 20
115
 11
158
 21
119
  0
MTEXT
  5
C4
100
AcDbEntity
  8
Maße
  6
CONTINUOUS
 62
    0
370
   -2
100
AcDbMText
 10
156.815
 20
117
 30
0
 40
1.62
 41
0.9000000000000001
 71
    5
 72
    1
  1
4
  7
standard
210
0
220
0
230
1
 50
90
 73
    2
 44
1
  0
SOLID
  5
C5
100
AcDbEntity
  8
Maße
  6
ByBlock
 62
    0
370
   -2
100
AcDbTrace
 10
158
 20
115
 30
0
 11
157.7502292053363
 21
116.5
 31
0
 12
158.2497707946637
 22
116.5
 32
0
 13
158.2497707946637
 23
116.5
 33
0
  0
SOLID
  5
C6
100
AcDbEntity
  8
Maße
  6
ByBlock
 62
    0
370
   -2
100
AcDbTrace
 10
158
 20
119
 30
0
 11
158.2497707946637
 21
117.5
 31
0
 12
157.7502292053363
 22
117.5
 32
0
 13
157.7502292053363
 23
117.5
 33
0
  0
LINE
  5
C7
100
AcDbEntity
  8
Maße
  6
ByBlock
 62
    0
370
   -2
100
AcDbLine
 10
159.625
 20
115
 11
157.25
 21
115
  0
LINE
  5
C8
100
AcDbEntity
  8
Maße
  6
ByBlock
 62
    0
370
   -2
100
AcDbLine
 10
159.625
 20
119
 11
157.25
 21
119
  0
ENDBLK
  5
77
330
75
100
AcDbEntity
  8
0
100
AcDbBlockEnd
  0
BLOCK
  5
79
330
78
100
AcDbEntity
  8
0
100
AcDbBlockBegin
  2
*D16
 70
    1
 10
0
 20
0
  3
*D16
  1

  0
LINE
  5
C9
100
AcDbEntity
  8
Maße
  6
ByBlock
 62
    0
370
   -2
100
AcDbLine
 10
78.00000000000001
 20
136.4
 11
102
 21
136.4
  0
MTEXT
  5
CA
100
AcDbEntity
  8
Maße
  6
CONTINUOUS
 62
    0
370
   -2
100
AcDbMText
 10
90.00000000000001
 20
137.585
 30
0
 40
1.62
 41
2.16
 71
    5
 72
    1
  1
24
  7
standard
210
0
220
0
230
1
 50
0
 73
    2
 44
1
  0
SOLID
  5
CB
100
AcDbEntity
  8
Maße
  6
ByBlock
 62
    0
370
   -2
100
AcDbTrace
 10
78.00000000000001
 20
136.4
 30
0
 11
79.50000000000001
 21
136.6497707946637
 31
0
 12
79.50000000000001
 22
136.1502292053363
 32
0
 13
79.50000000000001
 23
136.1502292053363
 33
0
  0
SOLID
  5
CC
100
AcDbEntity
  8
Maße
  6
ByBlock
 62
    0
370
   -2
100
AcDbTrace
 10
102
 20
136.4
 30
0
 11
100.5
 21
136.1502292053363
 31
0
 12
100.5
 22
136.6497707946637
 32
0
 13
100.5
 23
136.6497707946637
 33
0
  0
LINE
  5
CD
100
AcDbEntity
  8
Maße
  6
ByBlock
 62
    0
370
   -2
100
AcDbLine
 10
78.00000000000001
 20
131.175
 11
78.00000000000001
 21
137.15
  0
LINE
  5
CE
100
AcDbEntity
  8
Maße
  6
ByBlock
 62
    0
370
   -2
100
AcDbLine
 10
102
 20
131.075
 11
102
 21
137.15
  0
ENDBLK
  5
7A
330
78
100
AcDbEntity
  8
0
100
AcDbBlockEnd
  0
BLOCK
  5
7C
330
7B
100
AcDbEntity
  8
0
100
AcDbBlockBegin
  2
*D11
 70
    1
 10
0
 20
0
  3
*D11
  1

  0
LINE
  5
CF
100
AcDbEntity
  8
Maße
  6
ByBlock
 62
    0
370
   -2
100
AcDbLine
 10
164.9
 20
123
 11
188.9
 21
123
  0
MTEXT
  5
D0
100
AcDbEntity
  8
Maße
  6
CONTINUOUS
 62
    0
370
   -2
100
AcDbMText
 10
176.9
 20
124.185
 30
0
 40
1.62
 41
2.16
 71
    5
 72
    1
  1
24
  7
standard
210
0
220
0
230
1
 50
0
 73
    2
 44
1
  0
SOLID
  5
D1
100
AcDbEntity
  8
Maße
  6
ByBlock
 62
    0
370
   -2
100
AcDbTrace
 10
164.9
 20
123
 30
0
 11
166.4
 21
123.2497707946637
 31
0
 12
166.4
 22
122.7502292053363
 32
0
 13
166.4
 23
122.7502292053363
 33
0
  0
SOLID
  5
D2
100
AcDbEntity
  8
Maße
  6
ByBlock
 62
    0
370
   -2
100
AcDbTrace
 10
188.9
 20
123
 30
0
 11
187.4
 21
122.7502292053363
 31
0
 12
187.4
 22
123.2497707946637
 32
0
 13
187.4
 23
123.2497707946637
 33
0
  0
LINE
  5
D3
100
AcDbEntity
  8
Maße
  6
ByBlock
 62
    0
370
   -2
100
AcDbLine
 10
164.9
 20
121.375
 11
164.9
 21
123.75
  0
LINE
  5
D4
100
AcDbEntity
  8
Maße
  6
ByBlock
 62
    0
370
   -2
100
AcDbLine
 10
188.9
 20
121.375
 11
188.9
 21
123.75
  0
ENDBLK
  5
7D
330
7B
100
AcDbEntity
  8
0
100
AcDbBlockEnd
  0
BLOCK
  5
7F
330
7E
100
AcDbEntity
  8
0
100
AcDbBlockBegin
  2
*D9
 70
    1
 10
0
 20
0
  3
*D9
  1

  0
LINE
  5
D5
100
AcDbEntity
  8
Maße
  6
ByBlock
 62
    0
370
   -2
100
AcDbLine
 10
162.8
 20
129
 11
191
 21
129
  0
MTEXT
  5
D6
100
AcDbEntity
  8
Maße
  6
CONTINUOUS
 62
    0
370
   -2
100
AcDbMText
 10
176.9
 20
130.185
 30
0
 40
1.62
 41
3.87
 71
    5
 72
    1
  1
28,2
  7
standard
210
0
220
0
230
1
 50
0
 73
    2
 44
1
  0
SOLID
  5
D7
100
AcDbEntity
  8
Maße
  6
ByBlock
 62
    0
370
   -2
100
AcDbTrace
 10
162.8
 20
129
 30
0
 11
164.3
 21
129.2497707946637
 31
0
 12
164.3
 22
128.7502292053363
 32
0
 13
164.3
 23
128.7502292053363
 33
0
  0
SOLID
  5
D8
100
AcDbEntity
  8
Maße
  6
ByBlock
 62
    0
370
   -2
100
AcDbTrace
 10
191
 20
129
 30
0
 11
189.5
 21
128.7502292053363
 31
0
 12
189.5
 22
129.2497707946637
 32
0
 13
189.5
 23
129.2497707946637
 33
0
  0
LINE
  5
D9
100
AcDbEntity
  8
Maße
  6
ByBlock
 62
    0
370
   -2
100
AcDbLine
 10
162.8
 20
127.375
 11
162.8
 21
129.75
  0
LINE
  5
DA
100
AcDbEntity
  8
Maße
  6
ByBlock
 62
    0
370
   -2
100
AcDbLine
 10
191
 20
127.375
 11
191
 21
129.75
  0
ENDBLK
  5
80
330
7E
100
AcDbEntity
  8
0
100
AcDbBlockEnd
  0
BLOCK
  5
82
330
81
100
AcDbEntity
  8
0
100
AcDbBlockBegin
  2
*D7
 70
    1
 10
0
 20
0
  3
*D7
  1

  0
LINE
  5
DB
100
AcDbEntity
  8
Maße
  6
ByBlock
 62
    0
370
   -2
100
AcDbLine
 10
154
 20
135
 11
154
 21
145
  0
MTEXT
  5
DC
100
AcDbEntity
  8
Maße
  6
CONTINUOUS
 62
    0
370
   -2
100
AcDbMText
 10
152.815
 20
140
 30
0
 40
1.62
 41
1.62
 71
    5
 72
    1
  1
10
  7
standard
210
0
220
0
230
1
 50
90
 73
    2
 44
1
  0
SOLID
  5
DD
100
AcDbEntity
  8
Maße
  6
ByBlock
 62
    0
370
   -2
100
AcDbTrace
 10
154
 20
135
 30
0
 11
153.7502292053363
 21
136.5
 31
0
 12
154.2497707946637
 22
136.5
 32
0
 13
154.2497707946637
 23
136.5
 33
0
  0
SOLID
  5
DE
100
AcDbEntity
  8
Maße
  6
ByBlock
 62
    0
370
   -2
100
AcDbTrace
 10
154
 20
145
 30
0
 11
154.2497707946637
 21
143.5
 31
0
 12
153.7502292053363
 22
143.5
 32
0
 13
153.7502292053363
 23
143.5
 33
0
  0
LINE
  5
DF
100
AcDbEntity
  8
Maße
  6
ByBlock
 62
    0
370
   -2
100
AcDbLine
 10
155.625
 20
135
 11
153.25
 21
135
  0
LINE
  5
E0
100
AcDbEntity
  8
Maße
  6
ByBlock
 62
    0
370
   -2
100
AcDbLine
 10
155.625
 20
145
 11
153.25
 21
145
  0
ENDBLK
  5
83
330
81
100
AcDbEntity
  8
0
100
AcDbBlockEnd
  0
BLOCK
  5
85
330
84
100
AcDbEntity
  8
0
100
AcDbBlockBegin
  2
*D12
 70
    1
 10
0
 20
0
  3
*D12
  1

  0
LINE
  5
E1
100
AcDbEntity
  8
Maße
  6
ByBlock
 62
    0
370
   -2
100
AcDbLine
 10
73.09999999999999
 20
154.9
 11
106.9
 21
154.9
  0
MTEXT
  5
E2
100
AcDbEntity
  8
Maße
  6
CONTINUOUS
 62
    0
370
   -2
100
AcDbMText
 10
90
 20
156.085
 30
0
 40
1.62
 41
3.870000000000201
 71
    5
 72
    1
  1
33,8
  7
standard
210
0
220
0
230
1
 50
0
 73
    2
 44
1
  0
SOLID
  5
E3
100
AcDbEntity
  8
Maße
  6
ByBlock
 62
    0
370
   -2
100
AcDbTrace
 10
73.09999999999999
 20
154.9
 30
0
 11
74.59999999999999
 21
155.1497707946637
 31
0
 12
74.59999999999999
 22
154.6502292053363
 32
0
 13
74.59999999999999
 23
154.6502292053363
 33
0
  0
SOLID
  5
E4
100
AcDbEntity
  8
Maße
  6
ByBlock
 62
    0
370
   -2
100
AcDbTrace
 10
106.9
 20
154.9
 30
0
 11
105.4
 21
154.6502292053363
 31
0
 12
105.4
 22
155.1497707946637
 32
0
 13
105.4
 23
155.1497707946637
 33
0
  0
LINE
  5
E5
100
AcDbEntity
  8
Maße
  6
ByBlock
 62
    0
370
   -2
100
AcDbLine
 10
73.09999999999999
 20
131.275
 11
73.09999999999999
 21
155.65
  0
LINE
  5
E6
100
AcDbEntity
  8
Maße
  6
ByBlock
 62
    0
370
   -2
100
AcDbLine
 10
106.9
 20
131.275
 11
106.9
 21
155.65
  0
ENDBLK
  5
86
330
84
100
AcDbEntity
  8
0
100
AcDbBlockEnd
  0
BLOCK
  5
88
330
87
100
AcDbEntity
  8
0
100
AcDbBlockBegin
  2
*D14
 70
    1
 10
0
 20
0
  3
*D14
  1

  0
LINE
  5
E7
100
AcDbEntity
  8
Maße
  6
ByBlock
 62
    0
370
   -2
100
AcDbLine
 10
104.5
 20
133.8
 11
104.5
 21
124.9
  0
MTEXT
  5
E8
100
AcDbEntity
  8
Maße
  6
CONTINUOUS
 62
    0
370
   -2
100
AcDbMText
 10
103.315
 20
129.35
 30
0
 40
1.62
 41
2.61
 71
    5
 72
    1
  1
2,9
  7
standard
210
0
220
0
230
1
 50
90
 73
    2
 44
1
  0
SOLID
  5
E9
100
AcDbEntity
  8
Maße
  6
ByBlock
 62
    0
370
   -2
100
AcDbTrace
 10
104.5
 20
130.8
 30
0
 11
104.2502292053363
 21
132.3
 31
0
 12
104.7497707946637
 22
132.3
 32
0
 13
104.7497707946637
 23
132.3
 33
0
  0
SOLID
  5
EA
100
AcDbEntity
  8
Maße
  6
ByBlock
 62
    0
370
   -2
100
AcDbTrace
 10
104.5
 20
127.9
 30
0
 11
104.7497707946637
 21
126.4
 31
0
 12
104.2502292053363
 22
126.4
 32
0
 13
104.2502292053363
 23
126.4
 33
0
  0
LINE
  5
EB
100
AcDbEntity
  8
Maße
  6
ByBlock
 62
    0
370
   -2
100
AcDbLine
 10
102.375
 20
130.8
 11
105.25
 21
130.8
  0
LINE
  5
EC
100
AcDbEntity
  8
Maße
  6
ByBlock
 62
    0
370
   -2
100
AcDbLine
 10
102.375
 20
127.9
 11
105.25
 21
127.9
  0
ENDBLK
  5
89
330
87
100
AcDbEntity
  8
0
100
AcDbBlockEnd
  0
BLOCK
  5
8B
330
8A
100
AcDbEntity
  8
0
100
AcDbBlockBegin
  2
*D15
 70
    1
 10
0
 20
0
  3
*D15
  1

  0
LINE
  5
ED
100
AcDbEntity
  8
Maße
  6
ByBlock
 62
    0
370
   -2
100
AcDbLine
 10
86
 20
133.3
 11
94
 21
133.3
  0
MTEXT
  5
EE
100
AcDbEntity
  8
Maße
  6
CONTINUOUS
 62
    0
370
   -2
100
AcDbMText
 10
90
 20
134.485
 30
0
 40
1.62
 41
0.7200000000000001
 71
    5
 72
    1
  1
8
  7
standard
210
0
220
0
230
1
 50
0
 73
    2
 44
1
  0
SOLID
  5
EF
100
AcDbEntity
  8
Maße
  6
ByBlock
 62
    0
370
   -2
100
AcDbTrace
 10
86
 20
133.3
 30
0
 11
87.5
 21
133.5497707946637
 31
0
 12
87.5
 22
133.0502292053363
 32
0
 13
87.5
 23
133.0502292053363
 33
0
  0
SOLID
  5
F0
100
AcDbEntity
  8
Maße
  6
ByBlock
 62
    0
370
   -2
100
AcDbTrace
 10
94
 20
133.3
 30
0
 11
92.5
 21
133.0502292053363
 31
0
 12
92.5
 22
133.5497707946637
 32
0
 13
92.5
 23
133.5497707946637
 33
0
  0
LINE
  5
F1
100
AcDbEntity
  8
Maße
  6
ByBlock
 62
    0
370
   -2
100
AcDbLine
 10
86
 20
132.275
 11
86
 21
134.05
  0
LINE
  5
F2
100
AcDbEntity
  8
Maße
  6
ByBlock
 62
    0
370
   -2
100
AcDbLine
 10
94
 20
132.275
 11
94
 21
134.05
  0
ENDBLK
  5
8C
330
8A
100
AcDbEntity
  8
0
100
AcDbBlockEnd
  0
ENDSEC
  0
SECTION
  2
ENTITIES
  0
HATCH
  5
F3
100
AcDbEntity
  8
O-Ringe
  6
ByLayer
 62
  256
370
   -1
100
AcDbHatch
 10
0
 20
0
 30
0
210
0
220
0
230
1
  2
ansi31
 70
    0
 71
    0
 91
    1
 92
    0
 93
    1
 72
    2
 10
160.9000000000001
 20
125
 40
1.799999999999983
 50
0
 51
360
 73
    1
 97
    0
 75
    0
 76
    1
 52
1.047197551196598
 41
0.2
 77
    0
 78
    0
 98
    0
  0
HATCH
  5
F4
100
AcDbEntity
  8
O-Ringe
  6
ByLayer
 62
  256
370
   -1
100
AcDbHatch
 10
0
 20
0
 30
0
210
0
220
0
230
1
  2
ansi31
 70
    0
 71
    0
 91
    1
 92
    0
 93
    1
 72
    2
 10
160.9000000000001
 20
117
 40
1.799999999999983
 50
0
 51
360
 73
    1
 97
    0
 75
    0
 76
    1
 52
1.047197551196598
 41
0.2
 77
    0
 78
    0
 98
    0
  0
HATCH
  5
F5
100
AcDbEntity
  8
O-Ringe
  6
ByLayer
 62
  256
370
   -1
100
AcDbHatch
 10
0
 20
0
 30
0
210
0
220
0
230
1
  2
ansi31
 70
    0
 71
    0
 91
    1
 92
    0
 93
    1
 72
    2
 10
192.9
 20
125
 40
1.799999999999983
 50
0
 51
360
 73
    1
 97
    0
 75
    0
 76
    1
 52
1.047197551196598
 41
0.2
 77
    0
 78
    0
 98
    0
  0
HATCH
  5
F6
100
AcDbEntity
  8
O-Ringe
  6
ByLayer
 62
  256
370
   -1
100
AcDbHatch
 10
0
 20
0
 30
0
210
0
220
0
230
1
  2
ansi31
 70
    0
 71
    0
 91
    1
 92
    0
 93
    1
 72
    2
 10
192.9
 20
117
 40
1.799999999999983
 50
0
 51
360
 73
    1
 97
    0
 75
    0
 76
    1
 52
1.047197551196598
 41
0.2
 77
    0
 78
    0
 98
    0
  0
MTEXT
  5
F7
100
AcDbEntity
  8
Rahmen
  6
ByLayer
 62
  256
370
   -1
100
AcDbMText
 10
26.75
 20
192.5
 30
0
 40
3.5
 41
0.7777777777777778
 71
    5
 72
    1
  1
1
  7
standard
210
0
220
0
230
1
 50
0
 73
    2
 44
1
  0
MTEXT
  5
F8
100
AcDbEntity
  8
Rahmen
  6
ByLayer
 62
  256
370
   -1
100
AcDbMText
 10
73.5
 20
192.5
 30
0
 40
3.5
 41
1.555555555555556
 71
    5
 72
    1
  1
2
  7
standard
210
0
220
0
230
1
 50
0
 73
    2
 44
1
  0
MTEXT
  5
F9
100
AcDbEntity
  8
Rahmen
  6
ByLayer
 62
  256
370
   -1
100
AcDbMText
 10
7.5
 20
172.5
 30
0
 40
3.5
 41
2.333333333333333
 71
    5
 72
    1
  1
A
  7
standard
210
0
220
0
230
1
 50
0
 73
    2
 44
1
  0
MTEXT
  5
FA
100
AcDbEntity
  8
Rahmen
  6
ByLayer
 62
  256
370
   -1
100
AcDbMText
 10
123.5
 20
192.5
 30
0
 40
3.5
 41
1.555555555555773
 71
    5
 72
    1
  1
3
  7
standard
210
0
220
0
230
1
 50
0
 73
    2
 44
1
  0
MTEXT
  5
FB
100
AcDbEntity
  8
Rahmen
  6
ByLayer
 62
  256
370
   -1
100
AcDbMText
 10
173.5
 20
192.5
 30
0
 40
3.5
 41
1.944444444444444
 71
    5
 72
    1
  1
4
  7
standard
210
0
220
0
230
1
 50
0
 73
    2
 44
1
  0
MTEXT
  5
FC
100
AcDbEntity
  8
Rahmen
  6
ByLayer
 62
  256
370
   -1
100
AcDbMText
 10
223.5
 20
192.5
 30
0
 40
3.5
 41
1.555555555555773
 71
    5
 72
    1
  1
5
  7
standard
210
0
220
0
230
1
 50
0
 73
    2
 44
1
  0
MTEXT
  5
FD
100
AcDbEntity
  8
Rahmen
  6
ByLayer
 62
  256
370
   -1
100
AcDbMText
 10
270.25
 20
192.5
 30
0
 40
3.5
 41
1.555555555555773
 71
    5
 72
    1
  1
6
  7
standard
210
0
220
0
230
1
 50
0
 73
    2
 44
1
  0
MTEXT
  5
FE
100
AcDbEntity
  8
Rahmen
  6
ByLayer
 62
  256
370
   -1
100
AcDbMText
 10
289.5
 20
172.5
 30
0
 40
3.5
 41
2.333333333333333
 71
    5
 72
    1
  1
A
  7
standard
210
0
220
0
230
1
 50
0
 73
    2
 44
1
  0
MTEXT
  5
FF
100
AcDbEntity
  8
Rahmen
  6
ByLayer
 62
  256
370
   -1
100
AcDbMText
 10
289.5
 20
125
 30
0
 40
3.5
 41
1.944444444444444
 71
    5
 72
    1
  1
B
  7
standard
210
0
220
0
230
1
 50
0
 73
    2
 44
1
  0
MTEXT
  5
100
100
AcDbEntity
  8
Rahmen
  6
ByLayer
 62
  256
370
   -1
100
AcDbMText
 10
289.5
 20
75.00000000000001
 30
0
 40
3.5
 41
1.555555555555773
 71
    5
 72
    1
  1
C
  7
standard
210
0
220
0
230
1
 50
0
 73
    2
 44
1
  0
MTEXT
  5
101
100
AcDbEntity
  8
Rahmen
  6
ByLayer
 62
  256
370
   -1
100
AcDbMText
 10
289.5
 20
27.50000000000001
 30
0
 40
3.5
 41
1.944444444444662
 71
    5
 72
    1
  1
D
  7
standard
210
0
220
0
230
1
 50
0
 73
    2
 44
1
  0
MTEXT
  5
102
100
AcDbEntity
  8
Rahmen
  6
ByLayer
 62
  256
370
   -1
100
AcDbMText
 10
270.25
 20
7.500000000000014
 30
0
 40
3.5
 41
1.555555555555773
 71
    5
 72
    1
  1
6
  7
standard
210
0
220
0
230
1
 50
0
 73
    2
 44
1
  0
MTEXT
  5
103
100
AcDbEntity
  8
Rahmen
  6
ByLayer
 62
  256
370
   -1
100
AcDbMText
 10
223.5
 20
7.500000000000014
 30
0
 40
3.5
 41
1.555555555555773
 71
    5
 72
    1
  1
5
  7
standard
210
0
220
0
230
1
 50
0
 73
    2
 44
1
  0
MTEXT
  5
104
100
AcDbEntity
  8
Rahmen
  6
ByLayer
 62
  256
370
   -1
100
AcDbMText
 10
173.5
 20
7.5
 30
0
 40
3.5
 41
1.944444444444444
 71
    5
 72
    1
  1
4
  7
standard
210
0
220
0
230
1
 50
0
 73
    2
 44
1
  0
MTEXT
  5
105
100
AcDbEntity
  8
Rahmen
  6
ByLayer
 62
  256
370
   -1
100
AcDbMText
 10
123.5
 20
7.5
 30
0
 40
3.5
 41
1.555555555555773
 71
    5
 72
    1
  1
3
  7
standard
210
0
220
0
230
1
 50
0
 73
    2
 44
1
  0
MTEXT
  5
106
100
AcDbEntity
  8
Rahmen
  6
ByLayer
 62
  256
370
   -1
100
AcDbMText
 10
73.5
 20
7.5
 30
0
 40
3.5
 41
1.555555555555556
 71
    5
 72
    1
  1
2
  7
standard
210
0
220
0
230
1
 50
0
 73
    2
 44
1
  0
MTEXT
  5
107
100
AcDbEntity
  8
Rahmen
  6
ByLayer
 62
  256
370
   -1
100
AcDbMText
 10
26.75
 20
7.5
 30
0
 40
3.5
 41
0.7777777777777778
 71
    5
 72
    1
  1
1
  7
standard
210
0
220
0
230
1
 50
0
 73
    2
 44
1
  0
MTEXT
  5
108
100
AcDbEntity
  8
Rahmen
  6
ByLayer
 62
  256
370
   -1
100
AcDbMText
 10
7.5
 20
27.5
 30
0
 40
3.5
 41
1.944444444444662
 71
    5
 72
    1
  1
D
  7
standard
210
0
220
0
230
1
 50
0
 73
    2
 44
1
  0
MTEXT
  5
109
100
AcDbEntity
  8
Rahmen
  6
ByLayer
 62
  256
370
   -1
100
AcDbMText
 10
7.5
 20
75
 30
0
 40
3.5
 41
1.555555555555773
 71
    5
 72
    1
  1
C
  7
standard
210
0
220
0
230
1
 50
0
 73
    2
 44
1
  0
MTEXT
  5
10A
100
AcDbEntity
  8
Rahmen
  6
ByLayer
 62
  256
370
   -1
100
AcDbMText
 10
7.500000000000014
 20
125
 30
0
 40
3.5
 41
1.944444444444444
 71
    5
 72
    1
  1
B
  7
standard
210
0
220
0
230
1
 50
0
 73
    2
 44
1
  0
LINE
  5
10B
100
AcDbEntity
  8
Rahmen
  6
ByLayer
 62
  256
370
   -1
100
AcDbLine
 10
198.5
 20
195
 11
198.5
 21
190
  0
LINE
  5
10C
100
AcDbEntity
  8
Rahmen
  6
ByLayer
 62
  256
370
   -1
100
AcDbLine
 10
248.5
 20
195
 11
248.5
 21
190
  0
LINE
  5
10D
100
AcDbEntity
  8
Rahmen
  6
ByLayer
 62
  256
370
   -1
100
AcDbLine
 10
292
 20
150
 11
287
 21
150
  0
LINE
  5
10E
100
AcDbEntity
  8
Rahmen
  6
ByLayer
 62
  256
370
   -1
100
AcDbLine
 10
292
 20
50
 11
287
 21
50
  0
LINE
  5
10F
100
AcDbEntity
  8
Rahmen
  6
ByLayer
 62
  256
370
   -1
100
AcDbLine
 10
98.5
 20
195
 11
98.5
 21
190
  0
LINE
  5
110
100
AcDbEntity
  8
Rahmen
  6
ByLayer
 62
  256
370
   -1
100
AcDbLine
 10
48.5
 20
195
 11
48.5
 21
190
  0
LINE
  5
111
100
AcDbEntity
  8
Rahmen
  6
ByLayer
 62
  256
370
   -1
100
AcDbLine
 10
10
 20
150
 11
5
 21
150
  0
LINE
  5
112
100
AcDbEntity
  8
Rahmen
  6
ByLayer
 62
  256
370
   -1
100
AcDbLine
 10
10
 20
50
 11
5
 21
50
  0
LINE
  5
113
100
AcDbEntity
  8
Rahmen
  6
ByLayer
 62
  256
370
   -1
100
AcDbLine
 10
48.5
 20
10
 11
48.5
 21
5
  0
LINE
  5
114
100
AcDbEntity
  8
Rahmen
  6
ByLayer
 62
  256
370
   -1
100
AcDbLine
 10
98.5
 20
10
 11
98.5
 21
5
  0
LINE
  5
115
100
AcDbEntity
  8
Rahmen
  6
ByLayer
 62
  256
370
   -1
100
AcDbLine
 10
148.5
 20
10
 11
148.5
 21
5
  0
LINE
  5
116
100
AcDbEntity
  8
Rahmen
  6
ByLayer
 62
  256
370
   -1
100
AcDbLine
 10
198.5
 20
10
 11
198.5
 21
5
  0
LINE
  5
117
100
AcDbEntity
  8
Rahmen
  6
ByLayer
 62
  256
370
   -1
100
AcDbLine
 10
248.5
 20
10
 11
248.5
 21
5
  0
LINE
  5
118
100
AcDbEntity
  8
Schriftfeld-Rahmen
  6
ByLayer
 62
  256
370
   -1
100
AcDbLine
 10
167
 20
10
 11
167
 21
55
  0
LINE
  5
119
100
AcDbEntity
  8
Schriftfeld-Rahmen
  6
ByLayer
 62
  256
370
   -1
100
AcDbLine
 10
107
 20
43.75
 11
287
 21
43.75
  0
LINE
  5
11A
100
AcDbEntity
  8
Schriftfeld-Rahmen
  6
ByLayer
 62
  256
370
   -1
100
AcDbLine
 10
167
 20
32.5
 11
287
 21
32.5
  0
LINE
  5
11B
100
AcDbEntity
  8
Schriftfeld-Rahmen
  6
ByLayer
 62
  256
370
   -1
100
AcDbLine
 10
227
 20
10
 11
227
 21
32.5
  0
LINE
  5
11C
100
AcDbEntity
  8
Schriftfeld-Rahmen
  6
ByLayer
 62
  256
370
   -1
100
AcDbLine
 10
227
 20
21.25
 11
287
 21
21.25
  0
LINE
  5
11D
100
AcDbEntity
  8
Schriftfeld-Rahmen
  6
ByLayer
 62
  256
370
   -1
100
AcDbLine
 10
247
 20
32.5
 11
247
 21
55
  0
LINE
  5
11E
100
AcDbEntity
  8
Schriftfeld-Rahmen
  6
ByLayer
 62
  256
370
   -1
100
AcDbLine
 10
207
 20
32.5
 11
207
 21
43.75
  0
LINE
  5
11F
100
AcDbEntity
  8
Schriftfeld-Rahmen
  6
ByLayer
 62
  256
370
   -1
100
AcDbLine
 10
247
 20
10
 11
247
 21
21.25
  0
LWPOLYLINE
  5
120
100
AcDbEntity
  8
Schriftfeld-Rahmen
  6
ByLayer
 62
  256
370
   -1
100
AcDbPolyline
 90
    4
 70
    1
 43
0
 10
107
 20
10
 10
287
 20
10
 10
287
 20
55
 10
107
 20
55
  0
TEXT
  5
121
100
AcDbEntity
  8
Schriftfeld-Label
  6
ByLayer
 62
  256
370
   -1
100
AcDbText
 10
209
 20
40
 30
0
 40
2
  1
Geprüft von:
 50
0
 41
1
 51
0
  7
unicode
 71
    0
210
0
220
0
230
1
100
AcDbText
  0
TEXT
  5
122
100
AcDbEntity
  8
Schriftfeld-Label
  6
ByLayer
 62
  256
370
   -1
100
AcDbText
 10
169
 20
40
 30
0
 40
2
  1
Erstellt von:
 50
0
 41
1
 51
0
  7
unicode
 71
    0
210
0
220
0
230
1
100
AcDbText
  0
TEXT
  5
123
100
AcDbEntity
  8
Schriftfeld-Label
  6
ByLayer
 62
  256
370
   -1
100
AcDbText
 10
229
 20
29
 30
0
 40
2
  1
Zeichnungsnummer:
 50
0
 41
1
 51
0
  7
unicode
 71
    0
210
0
220
0
230
1
100
AcDbText
  0
TEXT
  5
124
100
AcDbEntity
  8
Schriftfeld-Label
  6
ByLayer
 62
  256
370
   -1
100
AcDbText
 10
169
 20
29
 30
0
 40
2
  1
Titel, zusätzlicher Titel:
 50
0
 41
1
 51
0
  7
unicode
 71
    0
210
0
220
0
230
1
100
AcDbText
  0
TEXT
  5
125
100
AcDbEntity
  8
Schriftfeld-Label
  6
ByLayer
 62
  256
370
   -1
100
AcDbText
 10
229
 20
18
 30
0
 40
2
  1
Maßstab:
 50
0
 41
1
 51
0
  7
unicode
 71
    0
210
0
220
0
230
1
100
AcDbText
  0
TEXT
  5
126
100
AcDbEntity
  8
Schriftfeld-Label
  6
ByLayer
 62
  256
370
   -1
100
AcDbText
 10
249
 20
18
 30
0
 40
2
  1
Datum:
 50
0
 41
1
 51
0
  7
unicode
 71
    0
210
0
220
0
230
1
100
AcDbText
  0
TEXT
  5
127
100
AcDbEntity
  8
Schriftfeld-Label
  6
ByLayer
 62
  256
370
   -1
100
AcDbText
 10
169
 20
51
 30
0
 40
2
  1
Allgemeintoleranz:
 50
0
 41
1
 51
0
  7
unicode
 71
    0
210
0
220
0
230
1
100
AcDbText
  0
TEXT
  5
128
100
AcDbEntity
  8
Schriftfeld-Label
  6
ByLayer
 62
  256
370
   -1
100
AcDbText
 10
249
 20
51
 30
0
 40
2
  1
Werkstoff:
 50
0
 41
1
 51
0
  7
unicode
 71
    0
210
0
220
0
230
1
100
AcDbText
  0
TEXT
  5
129
100
AcDbEntity
  8
Schriftfeld-Label
  6
ByLayer
 62
  256
370
   -1
100
AcDbText
 10
109
 20
51
 30
0
 40
2
  1
Oberfläche:
 50
0
 41
1
 51
0
  7
unicode
 71
    0
210
0
220
0
230
1
100
AcDbText
  0
MTEXT
  5
12A
100
AcDbEntity
  8
Schriftfeld-Text
  6
ByLayer
 62
  256
370
   -1
100
AcDbMText
 10
169
 20
16
 30
0
 40
2
 41
30.8340004497298
 71
    7
 72
    1
  1
Weitere Beschreibung...
  7
unicode
210
0
220
0
230
1
 50
0
 73
    2
 44
1
  0
MTEXT
  5
12B
100
AcDbEntity
  8
Schriftfeld-Text
  6
ByLayer
 62
  256
370
   -1
100
AcDbMText
 10
229
 20
12
 30
0
 40
3
 41
7.833333333333333
 71
    7
 72
    1
  1
1 : 1
  7
unicode
210
0
220
0
230
1
 50
0
 73
    2
 44
1
  0
TEXT
  5
12C
100
AcDbEntity
  8
Schriftfeld-Label
  6
ByLayer
 62
  256
370
   -1
100
AcDbText
 10
273
 20
18
 30
0
 40
2
  1
Blatt-Nr.:
 50
0
 41
1
 51
0
  7
unicode
 71
    0
210
0
220
0
230
1
100
AcDbText
  0
MTEXT
  5
12D
100
AcDbEntity
  8
Schriftfeld-Text
  6
ByLayer
 62
  256
370
   -1
100
AcDbMText
 10
273
 20
12
 30
0
 40
3
 41
9.166666666666666
 71
    7
 72
    1
  1
1 / 1
  7
unicode
210
0
220
0
230
1
 50
0
 73
    2
 44
1
  0
LINE
  5
12E
100
AcDbEntity
  8
Schriftfeld-Rahmen
  6
ByLayer
 62
  256
370
   -1
100
AcDbLine
 10
271
 20
10
 11
271
 21
21.25
  0
MTEXT
  5
12F
100
AcDbEntity
  8
Schriftfeld-Text
  6
ByLayer
 62
  256
370
   -1
100
AcDbMText
 10
169
 20
21
 30
0
 40
3
 41
31.0010006745947
 71
    7
 72
    1
  1
Zeichnungsname
  7
unicode
210
0
220
0
230
1
 50
0
 73
    2
 44
1
  0
LWPOLYLINE
  5
130
100
AcDbEntity
  8
Rahmen
  6
ByLayer
 62
  256
370
   -1
100
AcDbPolyline
 90
    4
 70
    1
 43
0
 10
292
 20
5
 10
292
 20
195
 10
5
 20
195
 10
5
 20
5
  0
LWPOLYLINE
  5
131
100
AcDbEntity
  8
Rahmen
  6
ByLayer
 62
  256
370
    0
100
AcDbPolyline
 90
    4
 70
    1
 43
0
 10
0
 20
210
 10
0
 20
0
 10
297
 20
1.4210854715202e-14
 10
297
 20
210
  0
LINE
  5
132
100
AcDbEntity
  8
Rahmen
  6
ByLayer
 62
  256
370
   -1
100
AcDbLine
 10
148.5
 20
210
 11
148.5
 21
185
  0
LINE
  5
133
100
AcDbEntity
  8
Rahmen
  6
ByLayer
 62
  256
370
   -1
100
AcDbLine
 10
292
 20
100
 11
282
 21
100
  0
LINE
  5
134
100
AcDbEntity
  8
Rahmen
  6
ByLayer
 62
  256
370
   -1
100
AcDbLine
 10
15
 20
100
 11
5
 21
100
  0
MTEXT
  5
135
100
AcDbEntity
  8
Schriftfeld-Text
  6
ByLayer
 62
  256
370
   -1
100
AcDbMText
 10
209
 20
34
 30
0
 40
2.8
 41
1.866666666666667
 71
    7
 72
    1
  1
...
  7
unicode
210
0
220
0
230
1
 50
0
 73
    2
 44
1
  0
MTEXT
  5
136
100
AcDbEntity
  8
Schriftfeld-Text
  6
ByLayer
 62
  256
370
   -1
100
AcDbMText
 10
249
 20
34
 30
0
 40
2.8
 41
1.866666666666667
 71
    7
 72
    1
  1
...
  7
unicode
210
0
220
0
230
1
 50
0
 73
    2
 44
1
  0
MTEXT
  5
137
100
AcDbEntity
  8
Schriftfeld-Text
  6
ByLayer
 62
  256
370
   -1
100
AcDbMText
 10
249
 20
46
 30
0
 40
2.8
 41
1.866666666666667
 71
    7
 72
    1
  1
...
  7
unicode
210
0
220
0
230
1
 50
0
 73
    2
 44
1
  0
MTEXT
  5
138
100
AcDbEntity
  8
Schriftfeld-Text
  6
ByLayer
 62
  256
370
   -1
100
AcDbMText
 10
169
 20
46
 30
0
 40
2.8
 41
1.866666666666667
 71
    7
 72
    1
  1
...
  7
unicode
210
0
220
0
230
1
 50
0
 73
    2
 44
1
  0
MTEXT
  5
139
100
AcDbEntity
  8
Schriftfeld-Text
  6
ByLayer
 62
  256
370
   -1
100
AcDbMText
 10
109
 20
46
 30
0
 40
2.8
 41
1.866666666666667
 71
    7
 72
    1
  1
...
  7
unicode
210
0
220
0
230
1
 50
0
 73
    2
 44
1
  0
TEXT
  5
13A
100
AcDbEntity
  8
Schriftfeld-Label
  6
ByLayer
 62
  256
370
   -1
100
AcDbText
 10
249
 20
40
 30
0
 40
2
  1
Sonstiges:
 50
0
 41
1
 51
0
  7
unicode
 71
    0
210
0
220
0
230
1
100
AcDbText
  0
MTEXT
  5
13B
100
AcDbEntity
  8
Schriftfeld-Text
  6
ByLayer
 62
  256
370
   -1
100
AcDbMText
 10
229
 20
23
 30
0
 40
4
 41
31.55555555555555
 71
    7
 72
    1
  1
ZN-08154711
  7
unicode
210
0
220
0
230
1
 50
0
 73
    2
 44
1
  0
LWPOLYLINE
  5
13C
100
AcDbEntity
  8
Rahmen
  6
ByLayer
 62
  256
370
   70
100
AcDbPolyline
 90
    4
 70
    1
 43
0
 10
10
 20
190
 10
10
 20
10
 10
287
 20
10
 10
287
 20
190
  0
CIRCLE
  5
13D
100
AcDbEntity
  8
Rahmen
  6
ByLayer
 62
    9
370
   13
100
AcDbCircle
 10
268.5
 20
199
 40
2.75
  0
CIRCLE
  5
13E
100
AcDbEntity
  8
Rahmen
  6
ByLayer
 62
    9
370
   13
100
AcDbCircle
 10
188.5
 20
199
 40
2.75
  0
CIRCLE
  5
13F
100
AcDbEntity
  8
Rahmen
  6
ByLayer
 62
    9
370
   13
100
AcDbCircle
 10
108.5
 20
199
 40
2.75
  0
CIRCLE
  5
140
100
AcDbEntity
  8
Rahmen
  6
ByLayer
 62
    9
370
   13
100
AcDbCircle
 10
28.5
 20
199
 40
2.75
  0
MTEXT
  5
141
100
AcDbEntity
  8
Schriftfeld-Text
  6
ByLayer
 62
  256
370
   -1
100
AcDbMText
 10
169
 20
34
 30
0
 40
2.8
 41
1.866666666666667
 71
    7
 72
    1
  1
...
  7
unicode
210
0
220
0
230
1
 50
0
 73
    2
 44
1
  0
MTEXT
  5
142
100
AcDbEntity
  8
Schriftfeld-Text
  6
ByLayer
 62
  256
370
   -1
100
AcDbMText
 10
249
 20
12
 30
0
 40
3
 41
19
 71
    7
 72
    1
  1
31.05.2025
  7
unicode
210
0
220
0
230
1
 50
0
 73
    2
 44
1
  0
TEXT
  5
143
100
AcDbEntity
  8
Schriftfeld-Label
  6
ByLayer
 62
  256
370
   -1
100
AcDbText
 10
109
 20
40
 30
0
 40
2
  1
Author:
 50
0
 41
1
 51
0
  7
unicode
 71
    0
210
0
220
0
230
1
100
AcDbText
  0
MTEXT
  5
144
100
AcDbEntity
  8
Schriftfeld-Text
  6
ByLayer
 62
  256
370
   -1
100
AcDbMText
 10
109.3333333333333
 20
20.33333333333334
 30
0
 40
3
 41
33.50120143566741
 71
    7
 72
    1
  1
Jürgen Eggeling\PDellwiger Str. 15\P45475 Mülheim
  7
unicode
210
0
220
0
230
1
 50
0
 73
    2
 44
1
  0
LINE
  5
145
100
AcDbEntity
  8
Grundkörper
  6
ByLayer
 62
  256
370
   -1
100
AcDbLine
 10
160
 20
110
 11
193.8
 21
110
  0
LINE
  5
146
100
AcDbEntity
  8
Grundkörper
  6
ByLayer
 62
  256
370
   -1
100
AcDbLine
 10
160
 20
110
 11
160
 21
115
  0
LINE
  5
147
100
AcDbEntity
  8
Grundkörper
  6
ByLayer
 62
  256
370
   -1
100
AcDbLine
 10
193.8
 20
110
 11
193.8
 21
115
  0
DIMENSION
  5
148
100
AcDbEntity
  8
Maße
  6
ByLayer
 62
  256
370
   -1
100
AcDbDimension
  2
*D1
 10
193.8
 20
107
 30
0
 11
176.9
 21
108.185
 31
0
 70
   32
 71
    5
  3
Standard
 53
0
210
0
220
0
230
1
100
AcDbAlignedDimension
 13
160
 23
110
 33
0
 14
193.8
 24
110
 34
0
100
AcDbRotatedDimension
  0
LINE
  5
149
100
AcDbEntity
  8
Grundkörper
  6
ByLayer
 62
  256
370
   -1
100
AcDbLine
 10
160
 20
115
 11
162.8
 21
115
  0
LINE
  5
14A
100
AcDbEntity
  8
Grundkörper
  6
ByLayer
 62
  256
370
   -1
100
AcDbLine
 10
193.8
 20
115
 11
191
 21
115
  0
LINE
  5
14B
100
AcDbEntity
  8
Grundkörper
  6
ByLayer
 62
  256
370
   -1
100
AcDbLine
 10
162.8
 20
115
 11
162.8
 21
119
  0
LINE
  5
14C
100
AcDbEntity
  8
Grundkörper
  6
ByLayer
 62
  256
370
   -1
100
AcDbLine
 10
191
 20
115
 11
191
 21
119
  0
LINE
  5
14D
100
AcDbEntity
  8
Grundkörper
  6
ByLayer
 62
  256
370
   -1
100
AcDbLine
 10
191
 20
119
 11
193.8
 21
119
  0
LINE
  5
14E
100
AcDbEntity
  8
Grundkörper
  6
ByLayer
 62
  256
370
   -1
100
AcDbLine
 10
162.8
 20
119
 11
160
 21
119
  0
LINE
  5
14F
100
AcDbEntity
  8
Grundkörper
  6
ByLayer
 62
  256
370
   -1
100
AcDbLine
 10
160
 20
119
 11
160
 21
123
  0
LINE
  5
150
100
AcDbEntity
  8
Grundkörper
  6
ByLayer
 62
  256
370
   -1
100
AcDbLine
 10
160
 20
123
 11
162.8
 21
123
  0
LINE
  5
151
100
AcDbEntity
  8
Grundkörper
  6
ByLayer
 62
  256
370
   -1
100
AcDbLine
 10
162.8
 20
123
 11
162.8
 21
127
  0
LINE
  5
152
100
AcDbEntity
  8
Grundkörper
  6
ByLayer
 62
  256
370
   -1
100
AcDbLine
 10
162.8
 20
127
 11
160
 21
127
  0
LINE
  5
153
100
AcDbEntity
  8
Grundkörper
  6
ByLayer
 62
  256
370
   -1
100
AcDbLine
 10
193.8
 20
119
 11
193.8
 21
123
  0
LINE
  5
154
100
AcDbEntity
  8
Grundkörper
  6
ByLayer
 62
  256
370
   -1
100
AcDbLine
 10
193.8
 20
123
 11
191
 21
123
  0
LINE
  5
155
100
AcDbEntity
  8
Grundkörper
  6
ByLayer
 62
  256
370
   -1
100
AcDbLine
 10
191
 20
123
 11
191
 21
127
  0
LINE
  5
156
100
AcDbEntity
  8
Grundkörper
  6
ByLayer
 62
  256
370
   -1
100
AcDbLine
 10
191
 20
127
 11
193.8
 21
127
  0
DIMENSION
  5
157
100
AcDbEntity
  8
Maße
  6
ByLayer
 62
  256
370
   -1
100
AcDbDimension
  2
*D2
 10
158
 20
115
 30
0
 11
156.815
 21
112.5
 31
0
 70
   32
 71
    5
  3
Standard
 53
0
210
0
220
0
230
1
100
AcDbAlignedDimension
 13
160
 23
110
 33
0
 14
160
 24
115
 34
0
 50
90
100
AcDbRotatedDimension
  0
DIMENSION
  5
158
100
AcDbEntity
  8
Maße
  6
ByLayer
 62
  256
370
   -1
100
AcDbDimension
  2
*D3
 10
158
 20
119
 30
0
 11
156.815
 21
117
 31
0
 70
   32
 71
    5
  3
Standard
 53
0
210
0
220
0
230
1
100
AcDbAlignedDimension
 13
160
 23
115
 33
0
 14
160
 24
119
 34
0
 50
90
100
AcDbRotatedDimension
  0
DIMENSION
  5
159
100
AcDbEntity
  8
Maße
  6
ByLayer
 62
  256
370
   -1
100
AcDbDimension
  2
*D4
 10
158
 20
123
 30
0
 11
156.815
 21
121
 31
0
 70
   32
 71
    5
  3
Standard
 53
0
210
0
220
0
230
1
100
AcDbAlignedDimension
 13
160
 23
119
 33
0
 14
160
 24
123
 34
0
 50
90
100
AcDbRotatedDimension
  0
DIMENSION
  5
15A
100
AcDbEntity
  8
Maße
  6
ByLayer
 62
  256
370
   -1
100
AcDbDimension
  2
*D5
 10
158
 20
127
 30
0
 11
156.815
 21
125
 31
0
 70
   32
 71
    5
  3
Standard
 53
0
210
0
220
0
230
1
100
AcDbAlignedDimension
 13
160
 23
123
 33
0
 14
160
 24
127
 34
0
 50
90
100
AcDbRotatedDimension
  0
LINE
  5
15B
100
AcDbEntity
  8
Grundkörper
  6
ByLayer
 62
  256
370
   -1
100
AcDbLine
 10
160
 20
127
 11
160
 21
135
  0
LINE
  5
15C
100
AcDbEntity
  8
Grundkörper
  6
ByLayer
 62
  256
370
   -1
100
AcDbLine
 10
193.8
 20
127
 11
193.8
 21
135
  0
LINE
  5
15D
100
AcDbEntity
  8
Grundkörper
  6
ByLayer
 62
  256
370
   -1
100
AcDbLine
 10
160
 20
135
 11
156
 21
135
  0
LINE
  5
15E
100
AcDbEntity
  8
Grundkörper
  6
ByLayer
 62
  256
370
   -1
100
AcDbLine
 10
193.8
 20
135
 11
197.8
 21
135
  0
LINE
  5
15F
100
AcDbEntity
  8
Grundkörper
  6
ByLayer
 62
  256
370
   -1
100
AcDbLine
 10
197.8
 20
135
 11
197.7
 21
135
  0
LINE
  5
160
100
AcDbEntity
  8
Grundkörper
  6
ByLayer
 62
  256
370
   -1
100
AcDbLine
 10
197.8
 20
135
 11
197.8
 21
145
  0
LINE
  5
161
100
AcDbEntity
  8
Grundkörper
  6
ByLayer
 62
  256
370
   -1
100
AcDbLine
 10
197.8
 20
145
 11
156
 21
145
  0
LINE
  5
162
100
AcDbEntity
  8
Grundkörper
  6
ByLayer
 62
  256
370
   -1
100
AcDbLine
 10
156
 20
145
 11
156
 21
135
  0
DIMENSION
  5
163
100
AcDbEntity
  8
Maße
  6
ByLayer
 62
  256
370
   -1
100
AcDbDimension
  2
*D6
 10
154
 20
135
 30
0
 11
152.815
 21
131
 31
0
 70
   32
 71
    5
  3
Standard
 53
0
210
0
220
0
230
1
100
AcDbAlignedDimension
 13
160
 23
127
 33
0
 14
160
 24
135
 34
0
 50
90
100
AcDbRotatedDimension
  0
LINE
  5
164
100
AcDbEntity
  8
Maße
  6
ByLayer
 62
  256
370
   -1
100
AcDbLine
 10
156
 20
135
 11
156
 21
145
  0
DIMENSION
  5
165
100
AcDbEntity
  8
Maße
  6
ByLayer
 62
  256
370
   -1
100
AcDbDimension
  2
*D7
 10
154
 20
145
 30
0
 11
152.815
 21
140
 31
0
 70
   32
 71
    5
  3
Standard
 53
0
210
0
220
0
230
1
100
AcDbAlignedDimension
 13
156
 23
135
 33
0
 14
156
 24
145
 34
0
 50
90
100
AcDbRotatedDimension
  0
DIMENSION
  5
166
100
AcDbEntity
  8
Maße
  6
ByLayer
 62
  256
370
   -1
100
AcDbDimension
  2
*D8
 10
197.8
 20
148
 30
0
 11
176.9
 21
149.185
 31
0
 70
   32
 71
    5
  3
Standard
 53
0
210
0
220
0
230
1
100
AcDbAlignedDimension
 13
156
 23
145
 33
0
 14
197.8
 24
145
 34
0
100
AcDbRotatedDimension
  0
DIMENSION
  5
167
100
AcDbEntity
  8
Maße
  6
ByLayer
 62
  256
370
   -1
100
AcDbDimension
  2
*D9
 10
191
 20
129
 30
0
 11
176.9
 21
130.185
 31
0
 70
   32
 71
    5
  3
Standard
 53
0
210
0
220
0
230
1
100
AcDbAlignedDimension
 13
162.8
 23
127
 33
0
 14
191
 24
127
 34
0
100
AcDbRotatedDimension
  0
MTEXT
  5
168
100
AcDbEntity
  8
Grundkörper
  6
ByLayer
 62
  256
370
   -1
100
AcDbMText
 10
175.2
 20
141.9
 30
0
 40
2.5
 41
3.611111111111266
 71
    1
 72
    1
  1
M6
  7
standard
210
0
220
0
230
1
 50
0
 73
    2
 44
1
  0
DIMENSION
  5
169
100
AcDbEntity
  8
Maße
  6
ByLayer
 62
  256
370
   -1
100
AcDbDimension
  2
*D10
 10
172
 20
145
 30
0
 11
170.815
 21
140
 31
0
 70
   32
 71
    5
  3
Standard
 53
0
210
0
220
0
230
1
100
AcDbAlignedDimension
 13
173.9
 23
135
 33
0
 14
173.9
 24
145
 34
0
 50
90
100
AcDbRotatedDimension
  0
LINE
  5
16A
100
AcDbEntity
  8
Hilfslinie
  6
DASHED
 62
   16
420
8388608
370
    9
100
AcDbLine
 10
176.9
 20
110
 11
176.9
 21
145
  0
CIRCLE
  5
16B
100
AcDbEntity
  8
O-Ringe
  6
ByLayer
 62
  256
370
   -1
100
AcDbCircle
 10
192.9
 20
117
 40
1.799999999999983
  0
CIRCLE
  5
16C
100
AcDbEntity
  8
O-Ringe
  6
ByLayer
 62
  256
370
   -1
100
AcDbCircle
 10
192.9
 20
125
 40
1.799999999999983
  0
CIRCLE
  5
16D
100
AcDbEntity
  8
O-Ringe
  6
ByLayer
 62
  256
370
   -1
100
AcDbCircle
 10
160.9000000000001
 20
117
 40
1.799999999999983
  0
CIRCLE
  5
16E
100
AcDbEntity
  8
O-Ringe
  6
ByLayer
 62
  256
370
   -1
100
AcDbCircle
 10
160.9000000000001
 20
125
 40
1.799999999999983
  0
LINE
  5
16F
100
AcDbEntity
  8
Grundkörper
  6
DASHED
 62
  256
370
   13
100
AcDbLine
 10
179.5
 20
135
 11
179.5
 21
145
  0
LINE
  5
170
100
AcDbEntity
  8
Grundkörper
  6
DASHED
 62
  256
370
   13
100
AcDbLine
 10
174.2
 20
135
 11
174.2
 21
145
  0
LINE
  5
171
100
AcDbEntity
  8
Hilfslinie
  6
ByLayer
 62
  256
370
   -1
100
AcDbLine
 10
164.9
 20
120.2
 11
164.9
 21
120.3
  0
MTEXT
  5
172
100
AcDbEntity
  8
Grundkörper
  6
ByLayer
 62
  256
370
   -1
100
AcDbMText
 10
167.4444449744498
 20
114.5
 30
0
 40
2.5
 41
18.88888835888363
 71
    1
 72
    1
  1
PCB-Schlitz
  7
standard
210
0
220
0
230
1
 50
0
 73
    2
 44
1
  0
DIMENSION
  5
173
100
AcDbEntity
  8
Maße
  6
ByLayer
 62
  256
370
   -1
100
AcDbDimension
  2
*D11
 10
188.9
 20
123
 30
0
 11
176.9
 21
124.185
 31
0
 70
   32
 71
    5
  3
Standard
 53
0
210
0
220
0
230
1
100
AcDbAlignedDimension
 13
164.9
 23
121
 33
0
 14
188.9
 24
121
 34
0
100
AcDbRotatedDimension
  0
LINE
  5
174
100
AcDbEntity
  8
Grundkörper
  6
CONTINUOUS
 62
  256
370
   13
100
AcDbLine
 10
164.9
 20
110
 11
164.9
 21
121
  0
LINE
  5
175
100
AcDbEntity
  8
Grundkörper
  6
CONTINUOUS
 62
  256
370
   13
100
AcDbLine
 10
164.9
 20
121
 11
188.9
 21
121
  0
LINE
  5
176
100
AcDbEntity
  8
Grundkörper
  6
CONTINUOUS
 62
  256
370
   13
100
AcDbLine
 10
188.9
 20
121
 11
188.9
 21
110
  0
LINE
  5
177
100
AcDbEntity
  8
Grundkörper
  6
CONTINUOUS
 62
  256
370
   13
100
AcDbLine
 10
173.9
 20
145
 11
173.9
 21
135
  0
LINE
  5
178
100
AcDbEntity
  8
Grundkörper
  6
CONTINUOUS
 62
  256
370
   13
100
AcDbLine
 10
180
 20
135
 11
173.9
 21
135
  0
LINE
  5
179
100
AcDbEntity
  8
Grundkörper
  6
CONTINUOUS
 62
  256
370
   13
100
AcDbLine
 10
180
 20
145
 11
180
 21
135
  0
MTEXT
  5
17A
100
AcDbEntity
  8
Grundkörper
  6
ByLayer
 62
  256
370
   -1
100
AcDbMText
 10
60
 20
90
 30
0
 40
8
 41
159.7777942349701
 71
    1
 72
    1
  1
Bodenverschluss Diverflasher
  7
standard
210
0
220
0
230
1
 50
0
 73
    2
 44
1
  0
CIRCLE
  5
17B
100
AcDbEntity
  8
Grundkörper
  6
ByLayer
 62
  256
370
   -1
100
AcDbCircle
 10
90
 20
130.9
 40
16.90000000000001
  0
DIMENSION
  5
17C
100
AcDbEntity
  8
Maße
  6
ByLayer
 62
  256
370
   -1
100
AcDbDimension
  2
*D12
 10
106.9
 20
154.9
 30
0
 11
90
 21
156.085
 31
0
 70
   32
 71
    5
  3
Standard
 53
0
210
0
220
0
230
1
100
AcDbAlignedDimension
 13
73.09999999999999
 23
130.9
 33
0
 14
106.9
 24
130.9
 34
0
100
AcDbRotatedDimension
  0
CIRCLE
  5
17D
100
AcDbEntity
  8
Grundkörper
  6
ByLayer
 62
  256
370
   -1
100
AcDbCircle
 10
90
 20
130.9
 40
20.9
  0
DIMENSION
  5
17E
100
AcDbEntity
  8
Maße
  6
ByLayer
 62
  256
370
   -1
100
AcDbDimension
  2
*D13
 10
110.9
 20
157.9
 30
0
 11
90
 21
159.085
 31
0
 70
   32
 71
    5
  3
Standard
 53
0
210
0
220
0
230
1
100
AcDbAlignedDimension
 13
69.09999999999999
 23
130.9
 33
0
 14
110.9
 24
130.9
 34
0
100
AcDbRotatedDimension
  0
LINE
  5
17F
100
AcDbEntity
  8
Hilfslinie
  6
ByLayer
 62
  256
370
   -1
100
AcDbLine
 10
90
 20
113.9
 11
68
 21
113.9
  0
LINE
  5
180
100
AcDbEntity
  8
Grundkörper
  6
ByLayer
 62
  256
370
   -1
100
AcDbLine
 10
78
 20
127.9
 11
102
 21
127.9
  0
LINE
  5
181
100
AcDbEntity
  8
Grundkörper
  6
ByLayer
 62
  256
370
   -1
100
AcDbLine
 10
78
 20
130.8
 11
86
 21
130.8
  0
LINE
  5
182
100
AcDbEntity
  8
Grundkörper
  6
ByLayer
 62
  256
370
   -1
100
AcDbLine
 10
78
 20
127.9
 11
78
 21
130.8
  0
LINE
  5
183
100
AcDbEntity
  8
Grundkörper
  6
ByLayer
 62
  256
370
   -1
100
AcDbLine
 10
86
 20
131.9
 11
94
 21
131.9
  0
LINE
  5
184
100
AcDbEntity
  8
Grundkörper
  6
ByLayer
 62
  256
370
   -1
100
AcDbLine
 10
86
 20
130.8
 11
86
 21
131.9
  0
LINE
  5
185
100
AcDbEntity
  8
Grundkörper
  6
ByLayer
 62
  256
370
   -1
100
AcDbLine
 10
94
 20
131.9
 11
94
 21
130.8
  0
LINE
  5
186
100
AcDbEntity
  8
Grundkörper
  6
ByLayer
 62
  256
370
   -1
100
AcDbLine
 10
102
 20
130.8
 11
94
 21
130.8
  0
LINE
  5
187
100
AcDbEntity
  8
Grundkörper
  6
ByLayer
 62
  256
370
   -1
100
AcDbLine
 10
102
 20
127.9
 11
102
 21
130.8
  0
DIMENSION
  5
188
100
AcDbEntity
  8
Maße
  6
ByLayer
 62
  256
370
   -1
100
AcDbDimension
  2
*D14
 10
104.5
 20
127.9
 30
0
 11
103.315
 21
129.35
 31
0
 70
   32
 71
    5
  3
Standard
 53
0
210
0
220
0
230
1
100
AcDbAlignedDimension
 13
102
 23
130.8
 33
0
 14
102
 24
127.9
 34
0
 50
90
100
AcDbRotatedDimension
  0
DIMENSION
  5
189
100
AcDbEntity
  8
Maße
  6
ByLayer
 62
  256
370
   -1
100
AcDbDimension
  2
*D15
 10
94
 20
133.3
 30
0
 11
90
 21
134.485
 31
0
 70
   32
 71
    5
  3
Standard
 53
0
210
0
220
0
230
1
100
AcDbAlignedDimension
 13
86
 23
131.9
 33
0
 14
94
 24
131.9
 34
0
100
AcDbRotatedDimension
  0
DIMENSION
  5
18A
100
AcDbEntity
  8
Maße
  6
ByLayer
 62
  256
370
   -1
100
AcDbDimension
  2
*D16
 10
102
 20
136.4
 30
0
 11
90.00000000000001
 21
137.585
 31
0
 70
   32
 71
    5
  3
Standard
 53
0
210
0
220
0
230
1
100
AcDbAlignedDimension
 13
78.00000000000001
 23
130.8
 33
0
 14
102
 24
130.7
 34
0
100
AcDbRotatedDimension
  0
DIMENSION
  5
18B
100
AcDbEntity
  8
Maße
  6
ByLayer
 62
  256
370
   -1
100
AcDbDimension
  2
*D17
 10
90
 20
127.9
 30
0
 11
88.815
 21
120.95
 31
0
 70
   32
 71
    5
  3
Standard
 53
0
210
0
220
0
230
1
100
AcDbAlignedDimension
 13
90
 23
114
 33
0
 14
90.02045633643561
 24
127.9
 34
0
 50
90
100
AcDbRotatedDimension
  0
MTEXT
  5
18C
100
AcDbEntity
  8
Bemaßung
  6
ByLayer
 62
  256
370
   -1
100
AcDbMText
 10
149.3829805938838
 20
169
 30
0
 40
6
 41
52.00000181371141
 71
    1
 72
    1
  1
Seitenansicht
  7
standard
210
0
220
0
230
1
 50
0
 73
    2
 44
1
  0
MTEXT
  5
18D
100
AcDbEntity
  8
Grundkörper
  6
ByLayer
 62
  256
370
   -1
100
AcDbMText
 10
54.07236283756778
 20
169
 30
0
 40
6
 41
73.66666975239126
 71
    1
 72
    1
  1
Ansicht von unten
  7
standard
210
0
220
0
230
1
 50
0
 73
    2
 44
1
  0
ENDSEC
  0
SECTION
  2
OBJECTS
  0
DICTIONARY
  5
C
330
0
100
AcDbDictionary
281
    1
  3
ACAD_GROUP
350
D
  0
DICTIONARY
  5
D
330
C
100
AcDbDictionary
281
    1
  0
PLOTSETTINGS
  5
18E
100
AcDbPlotSettings
  6
1x1
 40
3.01
 41
3.01
 42
3.01
 43
3.01
  0
ENDSEC
  0
EOF
